<?xml version="1.0" encoding="iso-8859-1"?>
<!-- Generator: Adobe Illustrator 19.1.0, SVG Export Plug-In . SVG Version: 6.00 Build 0)  -->
<svg version="1.1" id="Capa_1" xmlns="http://www.w3.org/2000/svg" xmlns:xlink="http://www.w3.org/1999/xlink" x="0px" y="0px"
	 viewBox="0 0 329.613 329.613" style="enable-background:new 0 0 329.613 329.613;" xml:space="preserve">
<g>
	<path d="M20.961,52.424L46.27,77.733H13.673c-6.986,0-12.654-5.668-12.654-12.654c0-6.992,5.668-12.654,12.654-12.654H20.961z
		 M37.44,52.424l25.309,25.309h29.827L67.266,52.424H37.44z M280.843,130.15l23.047,88.896h9.049
		c8.638,0,15.656,7.025,15.656,15.656v24.345V271.9v42.064c0,8.631-7.018,15.649-15.656,15.649H173.547
		c-8.631,0-15.649-7.018-15.649-15.649V271.9v-12.854v-24.345c0-8.631,7.018-15.656,15.649-15.656h45.277l-6.793-26.209
		l-22.179-9.139c-1.478-0.611-2.185-2.307-1.581-3.785c0.617-1.478,2.307-2.192,3.792-1.575l2.539,1.041l8.561-20.759l-7.378-28.471
		h-9.917l-73.889-25.482V77.733h-2.937L83.732,52.424h28.246V25.765L185.867,0h123.447c10.63,0,19.28,8.651,19.28,19.281v91.589
		c0,10.63-8.651,19.281-19.28,19.281C309.314,130.15,280.843,130.15,280.843,130.15z M309.314,12.854H193.367v104.442h84.14h31.806
		c3.554,0,6.427-2.886,6.427-6.427V19.281C315.741,15.739,312.868,12.854,309.314,12.854z M124.832,95.509l55.689,19.197v-99.23
		l-55.689,19.415V95.509z M315.741,271.9h-60.766v-16.016H240.63V271.9h-69.879v42.064c0,1.536,1.253,2.796,2.802,2.796h139.392
		c1.542,0,2.802-1.253,2.802-2.796V271.9H315.741z M307.219,231.899h-85.053h-48.613c-1.542,0-2.802,1.253-2.802,2.802v24.345
		h57.025v-3.162c0-7.089,5.771-12.854,12.854-12.854h14.345c7.095,0,12.854,5.765,12.854,12.854v3.162h47.912v-24.345
		c0-1.542-1.253-2.802-2.802-2.802H307.219z M267.565,130.15h-58.516l23.059,88.896h58.51L267.565,130.15z M218.875,49.088h74.436
		c3.265,0,5.9-2.635,5.9-5.887c0-3.258-2.635-5.893-5.9-5.893h-74.436c-3.265,0-5.9,2.635-5.9,5.893
		C212.976,46.453,215.611,49.088,218.875,49.088z M218.875,70.965h74.436c3.265,0,5.9-2.635,5.9-5.887
		c0-3.258-2.635-5.893-5.9-5.893h-74.436c-3.265,0-5.9,2.635-5.9,5.893C212.976,68.33,215.611,70.965,218.875,70.965z
		 M293.311,81.055h-74.436c-3.265,0-5.9,2.641-5.9,5.893c0,3.252,2.635,5.893,5.9,5.893h74.436c3.265,0,5.9-2.641,5.9-5.893
		C299.211,83.697,296.576,81.055,293.311,81.055z"/>
</g>
<g>
</g>
<g>
</g>
<g>
</g>
<g>
</g>
<g>
</g>
<g>
</g>
<g>
</g>
<g>
</g>
<g>
</g>
<g>
</g>
<g>
</g>
<g>
</g>
<g>
</g>
<g>
</g>
<g>
</g>
</svg>
