<?xml version="1.0" encoding="iso-8859-1"?>
<!-- Generator: Adobe Illustrator 19.0.0, SVG Export Plug-In . SVG Version: 6.00 Build 0)  -->
<svg version="1.1" id="Capa_1" xmlns="http://www.w3.org/2000/svg" xmlns:xlink="http://www.w3.org/1999/xlink" x="0px" y="0px"
	 viewBox="0 0 448 448" style="enable-background:new 0 0 448 448;" xml:space="preserve">
<g>
	<path d="M362.492,41.801C324.713,14.846,275.53,0,224,0C172.47,0,123.287,14.846,85.508,41.801
		c-37.364,26.661-58.794,62.469-58.794,98.241c0,16.468,4.427,32.522,13.157,47.719c4.683,8.149,13.444,13.213,22.867,13.213
		c0,0,0,0,0.001,0c3.25,0,6.444-0.593,9.494-1.764c19.631-7.531,46.382-13.338,76.881-16.957
		c-11.94,59.876-19.54,125.675-19.54,170.241c0,52.662,42.844,95.506,95.507,95.506c52.662,0,95.506-42.844,95.506-95.506
		c0-44.453-7.588-110.071-19.527-169.976c29.594,3.634,55.543,9.341,74.704,16.692c3.05,1.171,6.244,1.764,9.495,1.764
		c9.423,0,18.185-5.063,22.867-13.213c8.731-15.197,13.158-31.252,13.158-47.719C421.286,104.27,399.856,68.462,362.492,41.801z
		 M304.587,352.494c0,43.84-35.666,79.506-79.506,79.506s-79.507-35.666-79.507-79.506c0-44.103,8.076-112.575,20.209-171.964
		c18.554-1.65,38.179-2.527,58.215-2.527c20.814,0,41.191,0.941,60.377,2.718C296.518,240.184,304.587,308.491,304.587,352.494z
		 M394.254,179.79c-1.837,3.197-5.283,5.184-8.994,5.184c-1.284,0-2.551-0.235-3.765-0.701
		c-22.42-8.602-53.419-15.061-88.495-18.751c-0.758-0.196-1.55-0.282-2.359-0.245c-21.109-2.135-43.642-3.273-66.642-3.273
		c-62.274,0-121.151,8.324-157.496,22.269c-1.214,0.465-2.48,0.701-3.764,0.701h-0.001c-3.711,0-7.157-1.986-8.994-5.184
		c-7.319-12.739-11.03-26.112-11.03-39.748c0-30.537,18.985-61.597,52.087-85.217C129.89,29.788,175.774,16,224,16
		c48.227,0,94.11,13.788,129.199,38.825c33.102,23.62,52.087,54.68,52.087,85.217C405.286,153.676,401.574,167.05,394.254,179.79z"
		/>
	<path d="M343.905,67.851c-6.295-4.492-13.092-8.655-20.202-12.373c-3.919-2.045-8.749-0.532-10.797,3.383
		c-2.047,3.916-0.532,8.749,3.383,10.797c6.461,3.377,12.625,7.151,18.323,11.218c9.51,6.785,17.516,14.224,23.795,22.11
		c1.58,1.983,3.911,3.017,6.264,3.017c1.747,0,3.506-0.569,4.979-1.741c3.456-2.753,4.027-7.786,1.275-11.242
		C363.717,83.968,354.626,75.5,343.905,67.851z"/>
	<path d="M290.569,41.914c-8.826-2.737-17.976-4.939-27.196-6.546c-4.357-0.757-8.496,2.154-9.254,6.508
		c-0.759,4.353,2.155,8.496,6.508,9.254c8.549,1.49,17.028,3.53,25.202,6.065c0.79,0.245,1.588,0.361,2.373,0.361
		c3.412,0,6.574-2.201,7.638-5.632C297.149,47.704,294.789,43.223,290.569,41.914z"/>
</g>
<g>
</g>
<g>
</g>
<g>
</g>
<g>
</g>
<g>
</g>
<g>
</g>
<g>
</g>
<g>
</g>
<g>
</g>
<g>
</g>
<g>
</g>
<g>
</g>
<g>
</g>
<g>
</g>
<g>
</g>
</svg>
