<?xml version="1.0" encoding="iso-8859-1"?>
<!-- Generator: Adobe Illustrator 19.0.0, SVG Export Plug-In . SVG Version: 6.00 Build 0)  -->
<svg version="1.1" id="Capa_1" xmlns="http://www.w3.org/2000/svg" xmlns:xlink="http://www.w3.org/1999/xlink" x="0px" y="0px"
	 viewBox="0 0 512 512" style="enable-background:new 0 0 512 512;" xml:space="preserve">
<g>
	<g>
		<g>
			<path d="M511.136,497.438c-0.597-1.133-48.118-92.227-66.746-181.39c15.547,9.395,30.328,21.621,42.385,37.542
				c1.476,1.948,3.717,2.973,5.985,2.973c1.577,0,3.168-0.495,4.521-1.521c3.303-2.501,3.952-7.205,1.452-10.507
				c-14.568-19.237-34.195-35.326-57.889-47.657c-1.6-10.049-2.761-19.988-3.363-29.681c23.983,3.956,47.05,10.952,62.37,23.045
				c1.377,1.087,3.016,1.613,4.643,1.613c2.217,0,4.412-0.979,5.892-2.853c2.566-3.252,2.012-7.968-1.239-10.534
				c-18.171-14.344-44.994-22.285-72.139-26.553c-0.007-9.261-0.218-18.198-0.623-26.835c20.397,0.054,42.882,2.226,66.308,8.042
				c4.014,0.996,8.087-1.451,9.086-5.473c0.998-4.02-1.452-8.088-5.473-9.086c-25.202-6.256-49.197-8.572-70.854-8.608
				c-3.638-46.781-13.683-83.855-30.424-112.579c-9.822-16.853-22.023-30.898-36.53-42.136c11.166-7.052,23.52-13.636,36.837-18.9
				c3.853-1.522,5.74-5.88,4.218-9.731c-1.522-3.853-5.881-5.738-9.731-4.218c-16.509,6.526-31.539,14.852-44.769,23.625
				c-5.696-3.435-11.694-6.497-17.98-9.202c9.883-8.671,21.168-15.854,33.092-18.411c4.05-0.868,6.63-4.855,5.761-8.905
				c-0.869-4.052-4.865-6.633-8.905-5.761c-17.264,3.702-32.913,14.848-45.689,27.253c-19.393-6.07-41.187-9.125-65.331-9.125
				c-24.152,0-45.936,3.061-65.321,9.133C177.9,18.594,162.248,7.444,144.981,3.742c-4.045-0.873-8.037,1.71-8.906,5.761
				c-0.868,4.05,1.711,8.037,5.761,8.905c11.903,2.552,23.182,9.74,33.067,18.416c-6.272,2.702-12.234,5.79-17.919,9.22
				c-13.239-8.782-28.281-17.117-44.805-23.649c-3.852-1.524-8.209,0.365-9.732,4.218c-1.523,3.852,0.365,8.209,4.217,9.731
				c13.316,5.264,25.68,11.861,36.859,18.928c-18.445,14.302-33.175,33.151-44.065,56.541c-1.748,3.755-0.122,8.217,3.634,9.965
				c3.755,1.753,8.217,0.123,9.965-3.633c10.681-22.94,25.124-40.915,43.495-54.078c30.88,22.195,49.894,45.532,50.275,46.005
				c1.481,1.848,3.659,2.809,5.856,2.809c1.646,0,3.303-0.539,4.686-1.648c3.232-2.591,3.751-7.311,1.161-10.543
				c-1.121-1.398-18.817-23.21-48.176-45.208c5.107-2.739,10.452-5.191,16.07-7.322c15.167,16.535,24.995,33.648,25.23,34.063
				c1.379,2.442,3.92,3.813,6.538,3.813c1.249,0,2.516-0.313,3.681-0.971c3.606-2.036,4.879-6.611,2.843-10.218
				c-0.69-1.223-9.069-15.867-22.626-31.667c16.125-4.217,34.074-6.31,53.911-6.31c19.858,0,37.799,2.097,53.914,6.307
				c-13.559,15.802-21.939,30.448-22.629,31.671c-2.037,3.606-0.765,8.182,2.843,10.218c1.165,0.658,2.432,0.971,3.681,0.971
				c2.617,0,5.159-1.372,6.537-3.813c0.175-0.309,9.999-17.488,25.217-34.08c5.628,2.133,10.994,4.576,16.108,7.321
				c-29.373,22.004-47.079,43.828-48.2,45.227c-2.591,3.232-2.071,7.952,1.16,10.543c1.384,1.109,3.041,1.648,4.687,1.648
				c2.197,0,4.375-0.961,5.856-2.809c0.274-0.342,19.267-23.755,50.277-46.028c14.673,10.521,26.845,24.12,36.617,40.888
				c15.503,26.6,24.869,61.311,28.366,105.364c-22.213,1.038-41.349,4.298-55.956,7.686c-0.409-0.703-0.808-1.409-1.238-2.104
				c-8.747-14.135-25.824-33.254-57.506-44.076c-0.005-0.002-0.01-0.002-0.015-0.004c-15.049-5.154-31.777-7.768-49.72-7.768
				c-17.944,0-34.673,2.614-49.723,7.769c-0.004,0.001-0.008,0.002-0.011,0.003c-31.682,10.822-48.758,29.941-57.506,44.076
				c-0.43,0.695-0.829,1.402-1.238,2.105c-14.611-3.388-33.753-6.65-55.974-7.686c1.936-24.625,5.69-46.169,11.355-65.146
				c1.185-3.969-1.072-8.147-5.041-9.332c-3.97-1.185-8.147,1.072-9.332,5.041c-6.031,20.203-9.998,43.049-11.999,69.099
				c-21.653,0.037-45.642,2.354-70.836,8.607c-4.02,0.998-6.47,5.066-5.472,9.086c0.998,4.021,5.064,6.472,9.086,5.473
				c23.424-5.814,45.905-7.986,66.299-8.041c-0.396,8.611-0.606,17.539-0.613,26.834c-27.146,4.267-53.97,12.208-72.139,26.552
				c-3.251,2.566-3.806,7.282-1.24,10.534c1.48,1.875,3.675,2.853,5.892,2.853c1.627,0,3.266-0.527,4.642-1.613
				c15.32-12.094,38.387-19.09,62.37-23.045c-0.602,9.693-1.764,19.633-3.365,29.683c-23.693,12.332-43.319,28.42-57.886,47.655
				c-2.5,3.303-1.851,8.007,1.451,10.508c1.354,1.025,2.945,1.521,4.522,1.521c2.268,0,4.51-1.024,5.984-2.973
				c12.135-16.024,27.043-28.224,42.374-37.51C48.961,405.209,1.46,496.305,0.864,497.438c-1.928,3.666-0.52,8.201,3.146,10.129
				c1.114,0.587,2.309,0.864,3.486,0.864c2.696,0,5.301-1.457,6.643-4.009c0.189-0.36,19.17-36.584,37.86-85.31
				c15.863-41.356,26.801-78.888,32.734-112.218c12.3-5.811,24.313-9.96,34.826-12.897c8.42-2.353,16.398-4.092,23.581-5.382
				c4.317,7.086,10.436,11.44,18.498,13.167c2.94,0.63,6.041,0.9,9.332,0.9c2.186,0,4.461-0.124,6.824-0.338
				c10.712,18.832,32.787,39.074,78.207,39.074c45.425,0,67.498-20.245,78.209-39.078c5.915,0.535,11.261,0.488,16.153-0.559
				c8.047-1.723,14.158-6.064,18.474-13.126c16.609,3.007,37.568,8.442,58.433,18.252c5.934,33.326,16.871,70.854,32.732,112.204
				c18.69,48.727,37.671,84.949,37.861,85.31c1.342,2.552,3.947,4.01,6.644,4.01c1.177,0,2.371-0.278,3.485-0.864
				C511.656,505.638,513.064,501.103,511.136,497.438z M115.94,279.434c-9.953,2.764-19.459,6.051-28.486,9.824
				c1.083-8.352,1.823-16.413,2.211-24.168c16.415-1.889,32.583-2.561,46.351-2.667c0.185,4.053,0.701,8.046,1.598,11.925
				c0.002,0.008,0.004,0.014,0.006,0.022C130.916,275.653,123.62,277.302,115.94,279.434z M136.899,247.333
				c-13.831,0.073-30.123,0.717-46.893,2.583c0.034-8.471,0.234-16.629,0.601-24.491c19.646,0.935,36.82,3.671,50.305,6.601
				C139.063,237.072,137.72,242.203,136.899,247.333z M255.998,179.032c13.429-0.002,26.045,1.589,37.617,4.736
				c-0.021,0.04-0.039,0.081-0.06,0.121c-0.338,0.652-0.702,1.292-1.09,1.921c-0.071,0.115-0.144,0.23-0.217,0.344
				c-0.404,0.635-0.827,1.261-1.28,1.87c-0.041,0.054-0.084,0.107-0.125,0.162c-0.448,0.595-0.92,1.176-1.413,1.745
				c-0.058,0.066-0.112,0.134-0.171,0.2c-0.506,0.574-1.038,1.131-1.588,1.676c-0.099,0.098-0.199,0.197-0.3,0.294
				c-0.554,0.535-1.126,1.058-1.721,1.563c-0.084,0.072-0.171,0.141-0.257,0.212c-0.609,0.508-1.234,1.002-1.882,1.477
				c-0.025,0.019-0.049,0.038-0.074,0.057c-0.658,0.479-1.341,0.937-2.037,1.381c-0.115,0.073-0.229,0.148-0.345,0.22
				c-0.68,0.424-1.377,0.831-2.09,1.22c-0.124,0.068-0.251,0.134-0.376,0.2c-0.74,0.394-1.492,0.774-2.264,1.129
				c-0.036,0.016-0.072,0.031-0.108,0.047c-0.76,0.347-1.537,0.671-2.325,0.979c-0.114,0.045-0.227,0.091-0.341,0.135
				c-0.785,0.299-1.584,0.576-2.395,0.835c-0.154,0.049-0.308,0.097-0.463,0.145c-0.819,0.252-1.647,0.488-2.49,0.699
				c-0.108,0.027-0.217,0.051-0.326,0.077c-0.827,0.201-1.664,0.382-2.512,0.542c-0.084,0.016-0.167,0.034-0.251,0.05
				c-0.872,0.159-1.756,0.291-2.648,0.404c-0.169,0.021-0.337,0.043-0.507,0.063c-0.878,0.103-1.765,0.185-2.659,0.242
				c-0.155,0.01-0.312,0.016-0.468,0.025c-0.937,0.052-1.88,0.086-2.832,0.086c-0.952,0-1.895-0.034-2.832-0.086
				c-0.156-0.009-0.313-0.015-0.468-0.025c-0.894-0.057-1.78-0.139-2.658-0.242c-0.17-0.02-0.34-0.042-0.509-0.064
				c-0.89-0.114-1.773-0.245-2.644-0.404c-0.087-0.016-0.172-0.035-0.259-0.051c-0.843-0.159-1.677-0.339-2.5-0.539
				c-0.111-0.027-0.224-0.051-0.335-0.079c-0.839-0.21-1.665-0.445-2.481-0.696c-0.159-0.049-0.317-0.098-0.475-0.149
				c-0.806-0.258-1.602-0.534-2.383-0.831c-0.121-0.046-0.239-0.095-0.359-0.142c-0.778-0.304-1.545-0.624-2.295-0.966
				c-0.044-0.02-0.089-0.038-0.133-0.058c-0.766-0.353-1.512-0.729-2.246-1.12c-0.132-0.071-0.266-0.14-0.397-0.211
				c-0.707-0.386-1.398-0.789-2.072-1.209c-0.124-0.077-0.246-0.156-0.369-0.235c-0.689-0.439-1.365-0.892-2.016-1.366
				c-0.035-0.026-0.069-0.053-0.104-0.079c-0.635-0.465-1.247-0.95-1.844-1.447c-0.093-0.077-0.188-0.153-0.28-0.231
				c-0.589-0.5-1.155-1.018-1.704-1.548c-0.107-0.103-0.212-0.207-0.318-0.312c-0.544-0.539-1.072-1.091-1.573-1.659
				c-0.065-0.073-0.126-0.15-0.19-0.224c-0.483-0.558-0.947-1.128-1.387-1.711c-0.047-0.062-0.097-0.123-0.143-0.185
				c-0.449-0.604-0.869-1.225-1.27-1.856c-0.076-0.119-0.152-0.238-0.226-0.358c-0.385-0.625-0.748-1.262-1.084-1.911
				c-0.021-0.042-0.041-0.084-0.062-0.125C229.955,180.622,242.571,179.032,255.998,179.032z M256,326.418
				c-34.014,0-52.207-12.912-61.931-26.45c0.244-0.043,0.495-0.09,0.74-0.134c1.862-0.335,3.754-0.68,5.714-1.042
				c14.157-2.608,31.559-5.815,51.462-6.206c1.327-0.026,2.665-0.04,4.014-0.04c21.582,0,40.375,3.463,55.476,6.245
				c2.218,0.409,4.364,0.803,6.455,1.177C308.205,313.506,290.013,326.418,256,326.418z M359.771,270.968
				c-0.078,0.336-0.16,0.651-0.241,0.975c-14.07-1.902-23.216-2.004-23.855-2.009c-0.018,0-0.036,0-0.054,0
				c-4.117,0-7.47,3.323-7.499,7.447c-0.029,4.142,3.306,7.523,7.447,7.553c0.232,0.001,5.8,0.083,14.842,1.055
				c-6.567,3.074-17.06,1.561-34.712-1.672c-0.502-0.092-1.002-0.185-1.509-0.278c-15.7-2.892-35.238-6.491-58.191-6.491
				c-3.18,0-6.287,0.075-9.334,0.202c-18.951,0.788-35.331,3.799-48.856,6.29c-0.525,0.097-1.043,0.192-1.563,0.287
				c-17.652,3.233-28.136,4.739-34.694,1.649c9.149-0.971,14.763-1.04,14.881-1.041c4.14-0.032,7.471-3.412,7.442-7.553
				c-0.029-4.124-3.381-7.447-7.499-7.447c-0.018,0-0.036,0-0.054,0c-0.639,0.005-9.786,0.107-23.856,2.009
				c-0.081-0.324-0.163-0.639-0.241-0.975c-0.635-2.747-1.034-5.573-1.21-8.449c14.168,0.294,23.426,1.057,23.751,1.084
				c4.124,0.369,7.761-2.699,8.118-6.825s-2.698-7.761-6.824-8.118c-1.309-0.114-10.396-0.865-23.991-1.19
				c0.779-3.968,1.951-7.941,3.493-11.855c10.65,2.924,16.785,5.341,17.036,5.442c0.922,0.373,1.875,0.55,2.812,0.55
				c2.963,0,5.771-1.769,6.953-4.684c1.556-3.839-0.294-8.213-4.133-9.769c-0.811-0.329-6.304-2.51-15.548-5.214
				c7.055-10.726,19.659-24.217,41.416-33.292c0.266,0.587,0.548,1.167,0.84,1.741c0.098,0.193,0.204,0.381,0.305,0.572
				c0.209,0.396,0.42,0.792,0.642,1.182c0.131,0.23,0.268,0.457,0.403,0.684c0.205,0.346,0.411,0.691,0.626,1.032
				c0.149,0.237,0.302,0.471,0.455,0.705c0.214,0.328,0.432,0.653,0.656,0.975c0.161,0.232,0.323,0.464,0.489,0.694
				c0.231,0.321,0.468,0.639,0.708,0.955c0.167,0.22,0.333,0.441,0.504,0.658c0.261,0.332,0.531,0.659,0.802,0.985
				c0.159,0.192,0.315,0.386,0.478,0.575c0.349,0.408,0.709,0.808,1.073,1.205c0.093,0.101,0.181,0.206,0.275,0.306
				c0.457,0.491,0.927,0.973,1.406,1.447c0.158,0.157,0.323,0.308,0.484,0.463c0.33,0.318,0.662,0.636,1.002,0.946
				c0.2,0.183,0.405,0.361,0.609,0.541c0.312,0.276,0.626,0.551,0.946,0.821c0.218,0.184,0.44,0.365,0.661,0.546
				c0.317,0.259,0.638,0.515,0.962,0.767c0.228,0.177,0.456,0.353,0.687,0.527c0.333,0.251,0.671,0.497,1.011,0.74
				c0.229,0.164,0.457,0.329,0.689,0.49c0.367,0.255,0.74,0.503,1.115,0.75c0.212,0.139,0.42,0.282,0.634,0.419
				c0.499,0.319,1.006,0.629,1.517,0.934c0.095,0.056,0.186,0.116,0.281,0.172c0.606,0.356,1.221,0.702,1.844,1.038
				c0.201,0.108,0.406,0.211,0.609,0.317c0.43,0.225,0.861,0.449,1.298,0.665c0.25,0.123,0.503,0.241,0.755,0.361
				c0.398,0.189,0.798,0.377,1.201,0.558c0.27,0.121,0.542,0.239,0.814,0.356c0.398,0.172,0.799,0.34,1.203,0.504
				c0.275,0.112,0.551,0.222,0.829,0.33c0.414,0.161,0.832,0.316,1.251,0.469c0.271,0.099,0.54,0.198,0.813,0.293
				c0.457,0.159,0.918,0.309,1.38,0.458c0.239,0.077,0.476,0.158,0.717,0.232c0.646,0.199,1.298,0.388,1.954,0.567
				c0.059,0.016,0.118,0.035,0.177,0.051c0.716,0.193,1.438,0.372,2.165,0.541c0.232,0.054,0.467,0.101,0.7,0.152
				c0.499,0.11,0.999,0.218,1.503,0.316c0.284,0.055,0.57,0.105,0.855,0.156c0.461,0.083,0.923,0.164,1.388,0.238
				c0.302,0.048,0.605,0.092,0.909,0.136c0.457,0.065,0.915,0.126,1.375,0.182c0.307,0.037,0.614,0.074,0.922,0.107
				c0.471,0.051,0.945,0.094,1.419,0.134c0.296,0.025,0.592,0.052,0.889,0.073c0.519,0.037,1.041,0.064,1.563,0.089
				c0.255,0.012,0.508,0.029,0.763,0.038c0.777,0.028,1.558,0.044,2.342,0.044s1.565-0.017,2.342-0.044
				c0.255-0.009,0.508-0.026,0.762-0.038c0.523-0.025,1.045-0.052,1.565-0.089c0.297-0.021,0.592-0.048,0.887-0.073
				c0.475-0.041,0.95-0.084,1.422-0.135c0.307-0.033,0.613-0.069,0.919-0.106c0.462-0.056,0.922-0.117,1.38-0.183
				c0.302-0.043,0.603-0.087,0.903-0.135c0.468-0.074,0.934-0.155,1.398-0.24c0.282-0.051,0.564-0.1,0.844-0.155
				c0.511-0.1,1.018-0.209,1.524-0.32c0.226-0.05,0.454-0.095,0.68-0.147c0.73-0.169,1.455-0.349,2.174-0.543
				c0.036-0.01,0.071-0.021,0.107-0.031c0.681-0.185,1.357-0.382,2.027-0.589c0.228-0.07,0.452-0.147,0.679-0.219
				c0.476-0.153,0.951-0.308,1.421-0.471c0.262-0.091,0.521-0.187,0.78-0.281c0.432-0.157,0.863-0.317,1.29-0.483
				c0.266-0.103,0.53-0.209,0.794-0.316c0.418-0.169,0.833-0.343,1.245-0.521c0.259-0.112,0.518-0.224,0.775-0.339
				c0.421-0.189,0.838-0.384,1.253-0.582c0.235-0.112,0.472-0.222,0.705-0.337c0.464-0.229,0.921-0.466,1.377-0.706
				c0.177-0.093,0.356-0.182,0.531-0.277c0.632-0.341,1.256-0.691,1.871-1.053c0.037-0.021,0.072-0.045,0.108-0.066
				c0.573-0.339,1.137-0.687,1.694-1.043c0.185-0.118,0.365-0.241,0.548-0.362c0.406-0.266,0.809-0.535,1.206-0.811
				c0.21-0.146,0.416-0.295,0.623-0.443c0.364-0.26,0.725-0.523,1.081-0.792c0.211-0.159,0.421-0.321,0.629-0.482
				c0.347-0.27,0.69-0.544,1.03-0.821c0.201-0.164,0.401-0.328,0.599-0.494c0.347-0.292,0.688-0.591,1.027-0.891
				c0.177-0.157,0.357-0.313,0.532-0.473c0.38-0.347,0.752-0.701,1.12-1.057c0.123-0.119,0.249-0.235,0.371-0.355
				c0.491-0.485,0.972-0.979,1.44-1.482c0.035-0.037,0.068-0.076,0.102-0.114c0.426-0.46,0.842-0.927,1.248-1.401
				c0.134-0.157,0.262-0.317,0.394-0.475c0.301-0.361,0.599-0.724,0.889-1.092c0.15-0.19,0.295-0.384,0.441-0.576
				c0.263-0.345,0.522-0.693,0.775-1.045c0.147-0.205,0.291-0.411,0.435-0.617c0.244-0.351,0.481-0.706,0.714-1.063
				c0.136-0.208,0.272-0.416,0.404-0.626c0.236-0.374,0.463-0.753,0.687-1.134c0.115-0.196,0.234-0.39,0.346-0.588
				c0.251-0.442,0.491-0.889,0.727-1.339c0.073-0.14,0.151-0.277,0.223-0.418c0.297-0.582,0.583-1.17,0.853-1.764
				c21.757,9.074,34.361,22.565,41.416,33.292c-9.244,2.704-14.737,4.885-15.549,5.214c-3.836,1.555-5.684,5.924-4.132,9.761
				c1.181,2.919,3.99,4.689,6.957,4.689c0.936,0,1.886-0.176,2.806-0.547c0.21-0.085,6.352-2.509,17.038-5.443
				c1.543,3.915,2.714,7.888,3.494,11.856c-13.595,0.324-22.682,1.076-23.991,1.19c-4.127,0.357-7.181,3.992-6.824,8.118
				c0.356,4.126,3.995,7.193,8.118,6.825c0.324-0.028,9.582-0.79,23.751-1.084C360.805,265.396,360.406,268.222,359.771,270.968z
				 M421.386,225.423c0.374,7.885,0.576,16.047,0.61,24.492c-16.771-1.867-33.065-2.511-46.897-2.584
				c-0.82-5.13-2.164-10.261-4.013-15.307C384.571,229.094,401.742,226.359,421.386,225.423z M396.06,279.435
				c-7.68-2.133-14.976-3.782-21.679-5.064c0.002-0.008,0.004-0.015,0.006-0.022c0.896-3.879,1.412-7.872,1.597-11.925
				c13.768,0.105,29.935,0.778,46.35,2.667c0.388,7.755,1.128,15.816,2.211,24.168C415.518,285.485,406.013,282.199,396.06,279.435z
				"/>
			<circle cx="333.637" cy="150.531" r="20.995"/>
			<circle cx="178.358" cy="150.531" r="20.995"/>
		</g>
	</g>
</g>
<g>
</g>
<g>
</g>
<g>
</g>
<g>
</g>
<g>
</g>
<g>
</g>
<g>
</g>
<g>
</g>
<g>
</g>
<g>
</g>
<g>
</g>
<g>
</g>
<g>
</g>
<g>
</g>
<g>
</g>
</svg>
