<?xml version="1.0" encoding="iso-8859-1"?>
<!-- Generator: Adobe Illustrator 19.0.0, SVG Export Plug-In . SVG Version: 6.00 Build 0)  -->
<svg version="1.1" id="Capa_1" xmlns="http://www.w3.org/2000/svg" xmlns:xlink="http://www.w3.org/1999/xlink" x="0px" y="0px"
	 viewBox="0 0 511.886 511.886" style="enable-background:new 0 0 511.886 511.886;" xml:space="preserve">
<g>
	<g>
		<path d="M271.494,46.162c-0.211-0.418-5.358-10.166-15.551-10.166c-10.192,0-15.34,9.748-15.55,10.166
			c-1.016,1.96-0.242,4.374,1.718,5.385c1.96,1.011,4.374,0.242,5.389-1.722c0.031-0.059,3.155-5.831,8.443-5.831
			c5.28,0,8.42,5.796,8.443,5.831c0.711,1.378,2.11,2.167,3.554,2.167c0.617,0,1.25-0.141,1.836-0.445
			C271.736,50.536,272.51,48.122,271.494,46.162z"/>
	</g>
</g>
<g>
	<g>
		<path d="M249.226,438.963c-8.49-33.054-17.277-89.604-17.277-127.033c0-2.21-1.789-3.999-3.999-3.999
			c-2.21,0-3.999,1.789-3.999,3.999c0,38.07,8.912,95.494,17.527,129.017c0.468,1.813,2.093,3.007,3.874,3.007
			c0.328,0,0.664-0.039,0.992-0.126C248.484,443.274,249.773,441.103,249.226,438.963z"/>
	</g>
</g>
<g>
	<g>
		<path d="M255.943,12.001c-28.876,0-31.992,64.325-31.992,91.979c0,2.21,1.789,3.999,3.999,3.999c2.21,0,3.999-1.789,3.999-4
			c0-51.015,9.42-83.98,23.994-83.98c2.211,0,3.999-1.789,3.999-3.999C259.942,13.79,258.154,12.001,255.943,12.001z"/>
	</g>
</g>
<g>
	<g>
		<path d="M223.78,262.795c-0.633-2.121-2.867-3.296-4.976-2.683l-40.287,12.095L2.559,340.191c-2.055,0.796-3.086,3.116-2.289,5.17
			c0.617,1.593,2.132,2.562,3.733,2.562c0.476,0,0.968-0.086,1.445-0.266l175.662-67.889l39.991-11.997
			C223.218,267.138,224.421,264.912,223.78,262.795z"/>
	</g>
</g>
<g>
	<g>
		<path d="M15.103,317.406c-1.398-1.726-3.914-1.976-5.624-0.586c-9.209,7.484-9.475,25.12-9.475,27.104
			c0,2.21,1.789,3.999,3.999,3.999c2.211,0,3.999-1.79,4-3.999c0-4.046,1.195-16.567,6.522-20.886
			C16.235,321.639,16.501,319.117,15.103,317.406z"/>
	</g>
</g>
<g>
	<g>
		<path d="M223.123,157.53c-1.351-1.765-3.866-2.082-5.608-0.734L9.564,316.758c-1.75,1.343-2.078,3.858-0.734,5.608
			c0.789,1.031,1.976,1.562,3.171,1.562c0.851,0,1.711-0.265,2.437-0.828l207.951-159.962
			C224.139,161.791,224.467,159.279,223.123,157.53z"/>
	</g>
</g>
<g>
	<g>
		<path d="M83.984,219.953c-2.21,0-3.999,1.788-3.999,3.999v24.611c0,2.21,1.789,3.999,3.999,3.999c2.21,0,3.999-1.789,3.999-3.999
			v-24.611C87.983,221.741,86.194,219.953,83.984,219.953z"/>
	</g>
</g>
<g>
	<g>
		<path d="M107.978,219.953c-2.21,0-3.999,1.788-3.999,3.999v6.146c0,2.211,1.789,3.999,3.999,3.999
			c2.211,0,3.999-1.788,3.999-3.999v-6.146C111.977,221.741,110.188,219.953,107.978,219.953z"/>
	</g>
</g>
<g>
	<g>
		<path d="M107.978,219.953H83.984c-2.21,0-3.999,1.788-3.999,3.999c0,2.21,1.789,3.999,3.999,3.999h23.994
			c2.211,0,3.999-1.789,3.999-3.999C111.977,221.741,110.188,219.953,107.978,219.953z"/>
	</g>
</g>
<g>
	<g>
		<path d="M147.968,171.964c-2.21,0-3.999,1.789-3.999,3.999v23.378c0,2.21,1.789,3.999,3.999,3.999c2.211,0,4-1.79,4-3.999v-23.378
			C151.968,173.753,150.179,171.964,147.968,171.964z"/>
	</g>
</g>
<g>
	<g>
		<path d="M171.963,171.964h-23.995c-2.21,0-3.999,1.789-3.999,3.999c0,2.211,1.789,3.999,3.999,3.999h23.995
			c2.21,0,3.999-1.789,3.999-3.999C175.962,173.753,174.173,171.964,171.963,171.964z"/>
	</g>
</g>
<g>
	<g>
		<path d="M171.963,171.963c-2.21,0-3.999,1.789-3.999,3.999v4.921c0,2.21,1.789,3.999,3.999,3.999c2.21,0,3.999-1.788,3.999-3.999
			v-4.921C175.962,173.752,174.173,171.963,171.963,171.963z"/>
	</g>
</g>
<g>
	<g>
		<path d="M91.982,305.932c-2.21,0-3.999,1.789-3.999,3.999v7.998c0,2.21,1.789,3.999,3.999,3.999s3.999-1.789,3.999-3.999v-7.998
			C95.981,307.721,94.192,305.932,91.982,305.932z"/>
	</g>
</g>
<g>
	<g>
		<path d="M115.976,296.661c-2.21,0-3.999,1.789-3.999,3.999v7.998c0,2.211,1.789,3.999,3.999,3.999
			c2.211,0,3.999-1.788,3.999-3.999v-7.998C119.975,298.45,118.186,296.661,115.976,296.661z"/>
	</g>
</g>
<g>
	<g>
		<path d="M139.97,287.389c-2.21,0-3.999,1.789-3.999,3.999v7.999c0,2.21,1.789,3.998,3.999,3.998c2.211,0,3.999-1.788,3.999-3.998
			v-7.999C143.969,289.178,142.181,287.389,139.97,287.389z"/>
	</g>
</g>
<g>
	<g>
		<path d="M251.788,462.801c-0.61-2.125-2.804-3.358-4.944-2.75l-83.98,23.995c-2.125,0.609-3.351,2.82-2.742,4.937
			c0.5,1.764,2.101,2.905,3.843,2.905c0.359,0,0.734-0.047,1.102-0.156l83.98-23.994
			C251.171,467.128,252.397,464.917,251.788,462.801z"/>
	</g>
</g>
<g>
	<g>
		<path d="M175.088,461.395c-1.375-1.719-3.882-1.999-5.624-0.625c-9.232,7.389-9.498,25.119-9.498,27.119
			c0,2.202,1.788,3.999,3.991,3.999c0.008,0,0.008,0,0.008,0c2.203,0,3.991-1.789,3.999-3.999c0.008-4.358,1.195-16.629,6.499-20.87
			C176.189,465.636,176.463,463.122,175.088,461.395z"/>
	</g>
</g>
<g>
	<g>
		<path d="M236.721,421.717c-1.203-1.844-3.694-2.359-5.53-1.164l-61.407,39.99c-1.851,1.211-2.374,3.68-1.172,5.538
			c0.766,1.172,2.047,1.812,3.351,1.812c0.75,0,1.507-0.21,2.179-0.648l61.407-39.991
			C237.401,426.044,237.924,423.575,236.721,421.717z"/>
	</g>
</g>
<g>
	<g>
		<path d="M227.95,99.981c-2.21,0-3.999,1.788-3.999,3.999v207.95c0,2.211,1.789,4,3.999,4c2.21,0,3.999-1.789,3.999-4V103.98
			C231.949,101.769,230.16,99.981,227.95,99.981z"/>
	</g>
</g>
<g>
	<g>
		<path d="M223.623,238.353c-0.883-2.026-3.257-2.948-5.265-2.073L34.402,316.257c-2.023,0.883-2.953,3.242-2.078,5.265
			c0.656,1.508,2.132,2.406,3.671,2.406c0.531,0,1.078-0.109,1.594-0.328l183.956-79.986
			C223.568,242.735,224.498,240.376,223.623,238.353z"/>
	</g>
</g>
<g>
	<g>
		<path d="M223.748,190.693c-0.704-2.097-2.968-3.222-5.062-2.527l-47.988,15.997c-2.094,0.695-3.226,2.96-2.531,5.057
			c0.562,1.676,2.125,2.734,3.796,2.734c0.422,0,0.843-0.066,1.265-0.207l47.989-15.997
			C223.31,195.055,224.443,192.79,223.748,190.693z"/>
	</g>
</g>
<g>
	<g>
		<path d="M283.937,307.932c-2.211,0-4,1.789-4,3.999c0,37.429-8.787,93.978-17.277,127.033c-0.546,2.139,0.742,4.31,2.883,4.865
			c0.328,0.086,0.664,0.125,0.992,0.125c1.78,0,3.405-1.195,3.874-3.006c8.614-33.524,17.526-90.948,17.526-129.017
			C287.935,309.721,286.147,307.932,283.937,307.932z"/>
	</g>
</g>
<g>
	<g>
		<path d="M255.943,12.002c-2.21,0-3.999,1.789-3.999,3.999S253.733,20,255.943,20c14.575,0,23.994,32.964,23.994,83.98
			c0,2.21,1.789,3.999,4,3.999c2.21,0,3.998-1.789,3.998-3.998C287.935,76.327,284.819,12.002,255.943,12.002z"/>
	</g>
</g>
<g>
	<g>
		<path d="M509.329,340.19l-176.255-68.078l-39.991-12.001c-2.101-0.609-4.343,0.563-4.976,2.683
			c-0.64,2.118,0.563,4.343,2.68,4.976l39.693,11.903l175.959,67.984c0.476,0.18,0.967,0.266,1.444,0.266
			c1.602,0,3.117-0.969,3.734-2.563C512.414,343.306,511.383,340.986,509.329,340.19z"/>
	</g>
</g>
<g>
	<g>
		<path d="M502.408,316.82c-1.71-1.382-4.232-1.14-5.623,0.586c-1.399,1.711-1.133,4.234,0.578,5.632
			c5.326,4.32,6.513,16.543,6.521,20.886c0.008,2.21,1.797,3.999,3.999,3.999c0,0,0,0,0.009,0c2.203,0,3.991-1.797,3.991-3.999
			C511.883,341.939,511.617,324.303,502.408,316.82z"/>
	</g>
</g>
<g>
	<g>
		<path d="M502.322,316.758l-207.95-159.962c-1.742-1.34-4.256-1.024-5.608,0.734c-1.344,1.749-1.016,4.261,0.734,5.608
			L497.448,323.1c0.727,0.562,1.585,0.828,2.437,0.828c1.196,0,2.382-0.531,3.171-1.562
			C504.4,320.616,504.072,318.102,502.322,316.758z"/>
	</g>
</g>
<g>
	<g>
		<path d="M427.902,219.953c-2.21,0-3.998,1.788-3.998,3.999v24.611c0,2.21,1.788,3.999,3.998,3.999c2.211,0,4-1.789,4-3.999
			v-24.611C431.902,221.741,430.113,219.953,427.902,219.953z"/>
	</g>
</g>
<g>
	<g>
		<path d="M403.908,219.953c-2.21,0-3.999,1.788-3.999,3.999v6.146c0,2.211,1.789,3.999,3.999,3.999c2.211,0,4-1.788,4-3.999v-6.146
			C407.908,221.741,406.119,219.953,403.908,219.953z"/>
	</g>
</g>
<g>
	<g>
		<path d="M427.902,219.953h-23.994c-2.21,0-3.999,1.788-3.999,3.999c0,2.21,1.789,3.999,3.999,3.999h23.994
			c2.211,0,4-1.789,4-3.999C431.902,221.741,430.113,219.953,427.902,219.953z"/>
	</g>
</g>
<g>
	<g>
		<path d="M363.918,171.964c-2.211,0-3.999,1.789-3.999,3.999v23.378c0,2.21,1.788,3.999,3.999,3.999s3.999-1.79,3.999-3.999
			v-23.378C367.917,173.753,366.129,171.964,363.918,171.964z"/>
	</g>
</g>
<g>
	<g>
		<path d="M363.917,171.964h-23.994c-2.211,0-3.999,1.789-3.999,3.999c0,2.211,1.788,3.999,3.999,3.999h23.995
			c2.211,0,3.999-1.789,3.998-3.999C367.916,173.753,366.128,171.964,363.917,171.964z"/>
	</g>
</g>
<g>
	<g>
		<path d="M339.923,171.963c-2.211,0-3.999,1.789-3.999,3.999v4.921c0,2.21,1.788,3.999,3.999,3.999c2.21,0,3.999-1.788,3.999-3.999
			v-4.921C343.922,173.752,342.133,171.963,339.923,171.963z"/>
	</g>
</g>
<g>
	<g>
		<path d="M419.904,305.932c-2.21,0-3.998,1.789-3.998,3.999v7.998c0,2.21,1.788,3.999,3.998,3.999c2.211,0,4-1.789,4-3.999v-7.998
			C423.904,307.721,422.115,305.932,419.904,305.932z"/>
	</g>
</g>
<g>
	<g>
		<path d="M395.91,296.661c-2.21,0-3.999,1.789-3.999,3.999v7.998c0,2.211,1.789,3.999,3.999,3.999c2.211,0,3.999-1.788,3.999-3.999
			v-7.998C399.909,298.45,398.121,296.661,395.91,296.661z"/>
	</g>
</g>
<g>
	<g>
		<path d="M371.916,287.389c-2.21,0-3.999,1.789-3.999,3.999v7.999c0,2.21,1.789,3.998,3.999,3.998c2.211,0,3.999-1.788,3.999-3.998
			v-7.999C375.915,289.178,374.127,287.389,371.916,287.389z"/>
	</g>
</g>
<g>
	<g>
		<path d="M349.023,484.046l-83.98-23.995c-2.156-0.608-4.342,0.625-4.944,2.75c-0.61,2.117,0.617,4.328,2.741,4.937l83.98,23.994
			c0.368,0.109,0.743,0.156,1.102,0.156c1.742,0,3.342-1.14,3.842-2.905C352.374,486.865,351.147,484.654,349.023,484.046z"/>
	</g>
</g>
<g>
	<g>
		<path d="M342.423,460.77c-1.733-1.374-4.241-1.094-5.624,0.625c-1.374,1.727-1.101,4.241,0.625,5.624
			c5.304,4.241,6.491,16.512,6.499,20.87c0.008,2.21,1.796,3.999,3.999,3.999c0,0,0,0,0.008,0c2.203,0,3.991-1.797,3.991-3.999
			C351.921,485.889,351.655,468.159,342.423,460.77z"/>
	</g>
</g>
<g>
	<g>
		<path d="M342.101,460.544l-61.407-39.99c-1.842-1.195-4.319-0.68-5.529,1.164c-1.203,1.858-0.68,4.327,1.171,5.537l61.407,39.991
			c0.672,0.437,1.43,0.647,2.18,0.647c1.305,0,2.585-0.639,3.35-1.811C344.476,464.224,343.953,461.755,342.101,460.544z"/>
	</g>
</g>
<g>
	<g>
		<path d="M283.937,99.981c-2.211,0-4,1.788-4,3.999v207.95c0,2.211,1.789,4,4,4c2.21,0,3.998-1.789,3.998-4V103.98
			C287.935,101.769,286.147,99.981,283.937,99.981z"/>
	</g>
</g>
<g>
	<g>
		<path d="M477.484,316.258l-183.956-79.977c-2.015-0.875-4.382,0.047-5.265,2.073c-0.875,2.024,0.055,4.382,2.078,5.261
			L474.297,323.6c0.516,0.219,1.063,0.328,1.594,0.328c1.538,0,3.015-0.898,3.671-2.405
			C480.437,319.499,479.507,317.141,477.484,316.258z"/>
	</g>
</g>
<g>
	<g>
		<path d="M341.189,204.163L293.2,188.166c-2.078-0.687-4.359,0.429-5.062,2.527c-0.696,2.097,0.437,4.362,2.531,5.057
			l47.988,15.997c0.422,0.141,0.844,0.207,1.266,0.207c1.672,0,3.234-1.058,3.796-2.734
			C344.415,207.123,343.282,204.858,341.189,204.163z"/>
	</g>
</g>
<g>
	<g>
		<path d="M255.943,403.909c-2.21,0-3.999,1.789-3.999,3.999v87.979c0,2.21,1.789,3.999,3.999,3.999
			c2.211,0,3.999-1.789,3.999-3.999v-87.979C259.942,405.698,258.154,403.909,255.943,403.909z"/>
	</g>
</g>
<g>
</g>
<g>
</g>
<g>
</g>
<g>
</g>
<g>
</g>
<g>
</g>
<g>
</g>
<g>
</g>
<g>
</g>
<g>
</g>
<g>
</g>
<g>
</g>
<g>
</g>
<g>
</g>
<g>
</g>
</svg>
