<?xml version="1.0" encoding="iso-8859-1"?>
<!-- Generator: Adobe Illustrator 19.0.0, SVG Export Plug-In . SVG Version: 6.00 Build 0)  -->
<svg version="1.1" id="Capa_1" xmlns="http://www.w3.org/2000/svg" xmlns:xlink="http://www.w3.org/1999/xlink" x="0px" y="0px"
	 viewBox="0 0 512.001 512.001" style="enable-background:new 0 0 512.001 512.001;" xml:space="preserve">
<g>
	<g>
		<path d="M508.274,298.875c-1.218-0.734-2.643-1.055-4.066-1.055h-88.887v-32.95v-41.059v-26.362v-31.931
			c0-4.199-3.405-7.604-7.604-7.604h-19.772V89.482c0-4.199-3.405-7.604-7.604-7.604h-66.912c-4.199,0-7.604,3.405-7.604,7.604
			v68.432H269.84c-4.199,0-7.604,3.405-7.604,7.604c0,4.199,3.405,7.604,7.604,7.604h110.502h19.772v16.723H211.546h-16.492
			l-7.965-16.723h47.264c4.199,0,7.604-3.405,7.604-7.604c0-4.199-3.405-7.604-7.604-7.604H175.24c-1.818,0-3.626,0.556-5.022,1.719
			c-2.779,2.317-3.502,6.084-2.04,9.155l15.209,31.931c1.261,2.647,3.933,4.334,6.865,4.334h13.688v18.758v41.059v11.51
			c-20.85-12.842-44.706-19.62-69.266-19.62H7.822c-2.369,0-4.684,0.989-6.155,2.847c-2.309,2.915-2.17,6.922,0.107,9.64
			l132.464,158.154c1.445,1.725,3.579,2.721,5.83,2.721h339.119c3.583,0,6.679-2.501,7.434-6.004l25.209-117.095
			C512.499,303.919,511.176,300.625,508.274,298.875z M321.033,97.086h51.704v15.207h-51.704V97.086z M372.737,157.915h-51.704
			v-30.414h51.704V157.915z M219.15,205.053h180.964v11.155H219.15V205.053z M400.114,231.416v25.851h-29.071v-25.851H400.114z
			 M355.834,231.416v25.851h-38.599v-25.851H355.834z M302.029,231.416v25.851H263.43v-25.851H302.029z M248.222,231.416v25.851
			h-29.071v-25.851H248.222z M219.15,272.475h180.964v25.346H271.68c-18.364,0-36.283-4.287-52.53-12.469V272.475z M491.052,331.279
			h-58.496c-4.199,0-7.604,3.405-7.604,7.604s3.405,7.604,7.604,7.604h55.222l-14.731,68.429H143.618l-91.704-109.49h71.285
			c11.381,0,22.678,1.656,33.576,4.921c10.909,3.269,21.254,8.099,30.748,14.356c21.641,14.251,46.773,21.784,72.679,21.784h136.869
			c4.199,0,7.604-3.405,7.604-7.604s-3.405-7.604-7.604-7.604h-136.87c-22.923,0-45.163-6.666-64.312-19.276
			c-10.73-7.071-22.422-12.529-34.749-16.224c-12.315-3.69-25.081-5.562-37.942-5.562H39.176l-15.284-18.248h110.784
			c22.929,0,45.171,6.665,64.319,19.277c21.64,14.25,46.773,21.783,72.684,21.783h223.302L491.052,331.279z"/>
	</g>
</g>
<g>
	<g>
		<path d="M108.57,322.286c-1.265-2.989-4.331-4.911-7.584-4.674c-3.174,0.231-5.911,2.493-6.764,5.552
			c-0.811,2.907,0.231,6.141,2.618,8c2.664,2.075,6.428,2.151,9.169,0.178C108.848,329.299,109.857,325.509,108.57,322.286z"/>
	</g>
</g>
<g>
	<g>
		<path d="M133.916,322.286c-1.241-2.932-4.201-4.843-7.398-4.688c-3.182,0.154-5.966,2.352-6.896,5.386
			c-2.034,6.63,5.503,12.27,11.33,8.627C134.071,329.661,135.269,325.673,133.916,322.286z"/>
	</g>
</g>
<g>
</g>
<g>
</g>
<g>
</g>
<g>
</g>
<g>
</g>
<g>
</g>
<g>
</g>
<g>
</g>
<g>
</g>
<g>
</g>
<g>
</g>
<g>
</g>
<g>
</g>
<g>
</g>
<g>
</g>
</svg>
