<?xml version="1.0" encoding="iso-8859-1"?>
<!-- Generator: Adobe Illustrator 19.0.0, SVG Export Plug-In . SVG Version: 6.00 Build 0)  -->
<svg version="1.1" id="Capa_1" xmlns="http://www.w3.org/2000/svg" xmlns:xlink="http://www.w3.org/1999/xlink" x="0px" y="0px"
	 viewBox="0 0 512.001 512.001" style="enable-background:new 0 0 512.001 512.001;" xml:space="preserve">
<g>
	<g>
		<path d="M490.403,288.078c-1.563-11.037-1.563-22.227,0-33.264l21.479-119.653c0.653-3.636-1.438-7.204-4.929-8.413
			c-3.49-1.206-7.341,0.305-9.075,3.566c-0.314,0.591-31.739,58.453-98.667,80.517c-5.004-4.561-10.399-8.913-16.047-13.059
			c-7.901-11.273-29.536-39.197-67.682-67.961c-38.839-29.287-81.957-49.937-128.155-61.373c-3.091-0.766-6.328,0.505-8.074,3.167
			l-31.551,48.107C65.887,121.886,0,189.116,0,271.446c0,2.568,1.314,4.958,3.483,6.334c0.989,0.627,20.408,12.637,54.635,12.637
			c0.554,0,1.121-0.011,1.683-0.017c-10.242,10.115-25.39,16.366-38.043,17.675c-2.038,0.211-3.901,1.246-5.156,2.865
			c-1.255,1.619-1.793,3.682-1.489,5.707c0.164,1.097,4.244,27.148,23.124,53.37c17.48,24.278,51.37,53.219,113.553,53.219
			c9.992,0,21.392-0.949,33.69-2.702c8.929,4.045,53.943,23.249,103.555,23.249c11.204,0,22.65-0.98,33.959-3.336
			c2.401-0.501,4.403-2.149,5.366-4.406c0.962-2.257,0.756-4.847-0.545-6.927c-0.148-0.236-13.94-22.621-12.02-46.491
			c1.752-0.761,3.494-1.53,5.223-2.305c22.943-10.298,54.5-26.827,78.074-48.276c66.789,22.244,98.482,79.972,98.792,80.551
			c1.335,2.498,3.913,3.966,6.616,3.966c0.818,0,1.649-0.135,2.459-0.416c3.486-1.211,5.574-4.777,4.921-8.41L490.403,288.078z
			 M188.856,84.314c65.746,17.427,118.757,53.709,153.604,88.615c-19.101-9.867-37.7-17.523-51.673-22.751
			c-43.534-16.29-90.927-27.512-125.453-29.998L188.856,84.314z M213.973,415.378c27.943-6.034,58.291-15.229,86.648-26.466
			c0.33,15.632,5.367,29.677,9.42,38.524C274.128,432.171,237.132,423.078,213.973,415.378z M410.718,320.253
			c12.708-14.528,21.121-30.903,21.121-48.807c0-3.717-0.371-7.492-1.103-11.219c-0.797-4.065-4.742-6.712-8.804-5.915
			c-4.064,0.798-6.713,4.739-5.915,8.804c0.545,2.777,0.821,5.58,0.821,8.33c0,16.441-9.715,33.456-28.875,50.571
			c-17.388,15.531-42.661,30.959-73.086,44.615c-53.455,23.992-118.872,40.886-160.482,41.571
			c38.508-34.672,61.008-84.443,61.008-136.757c0-16.535-2.197-32.931-6.53-48.732c-1.095-3.995-5.222-6.344-9.216-5.25
			c-3.995,1.096-6.345,5.222-5.25,9.217c3.979,14.51,5.996,29.57,5.996,44.766c0,53.384-25.511,103.886-68.362,135.685
			c-34.974-4.052-62.258-19.265-81.273-45.383c-11.305-15.528-16.774-31.274-19.175-40.121c17.779-3.977,37.981-14.975,48.29-32.771
			c1.429-0.2,2.869-0.414,4.334-0.658c4.086-0.682,6.846-4.546,6.165-8.632c-0.681-4.085-4.545-6.851-8.631-6.164
			c-34.857,5.808-58.197-2.564-66.679-6.47c2.177-66.82,52.512-121.666,117.342-130.899c8.645,6.452,16.708,13.742,23.975,21.717
			c1.48,1.624,3.509,2.448,5.546,2.448c1.803,0,3.612-0.646,5.05-1.956c3.062-2.79,3.282-7.534,0.492-10.596
			c-4.129-4.531-8.494-8.858-13.06-12.962c33.331,0.582,84.347,12.044,131.113,29.543c56.141,21.006,98.099,47.056,118.145,73.351
			c2.512,3.295,7.218,3.928,10.511,1.418c3.294-2.512,3.929-7.218,1.417-10.512c-1.51-1.98-3.124-3.923-4.796-5.843
			c37.774-14.133,64.189-38.21,80.399-57.202l-15.591,86.858c-0.016,0.088-0.03,0.177-0.043,0.265c-1.79,12.53-1.79,25.237,0,37.768
			c0.013,0.088,0.027,0.177,0.043,0.265l15.613,86.981C475.01,358.613,448.56,334.521,410.718,320.253z"/>
	</g>
</g>
<g>
	<g>
		<path d="M196.042,189.237c-2.388-4.77-5.018-9.494-7.816-14.04c-2.172-3.528-6.792-4.627-10.319-2.455
			c-3.527,2.171-4.627,6.791-2.455,10.318c2.57,4.175,4.985,8.513,7.178,12.893c1.315,2.626,3.962,4.144,6.712,4.144
			c1.128,0,2.275-0.256,3.352-0.796C196.398,197.447,197.897,192.941,196.042,189.237z"/>
	</g>
</g>
<g>
	<g>
		<path d="M71.629,199.817c-12.976,0-23.532,10.557-23.532,23.532v8.016c0,12.976,10.557,23.532,23.532,23.532
			c12.975,0,23.532-10.557,23.532-23.532v-8.016C95.161,210.374,84.605,199.817,71.629,199.817z M80.161,231.365
			c0,4.705-3.828,8.532-8.532,8.532c-4.705,0-8.532-3.827-8.532-8.532v-8.016c0-4.705,3.828-8.532,8.532-8.532
			c4.705,0,8.532,3.827,8.532,8.532V231.365z"/>
	</g>
</g>
<g>
	<g>
		<path d="M348.133,259.92c-4.064-7.676-16.854-11.513-44.146-13.244c-17.233-1.092-33.43-0.779-34.112-0.765
			c-4.141,0.084-7.43,3.51-7.345,7.651c0.083,4.089,3.425,7.347,7.496,7.347c0.052,0,0.104,0,0.156-0.002
			c28.686-0.58,57.546,2.155,64.204,5.959c-0.372,2.405-1.968,7.285-5.143,13.881l-30-4.687c-4.092-0.641-7.928,2.161-8.568,6.252
			c-0.639,4.093,2.16,7.929,6.252,8.568l24.557,3.837c-9.035,14.463-17.24,22.437-21.095,23.722
			c-8.83,2.946-35.47-14.849-54.816-36.611c-2.752-3.098-7.493-3.376-10.588-0.623c-3.096,2.752-3.375,7.492-0.623,10.588
			c9.434,10.614,21.781,21.551,33.027,29.256c12.28,8.414,22.698,12.646,31.088,12.646c2.383,0,4.603-0.342,6.655-1.025
			c6.971-2.323,14.897-9.638,23.56-21.74c6.931-9.684,13.357-21.176,17.189-30.74C349.749,270.537,350.444,264.286,348.133,259.92z"
			/>
	</g>
</g>
<g>
</g>
<g>
</g>
<g>
</g>
<g>
</g>
<g>
</g>
<g>
</g>
<g>
</g>
<g>
</g>
<g>
</g>
<g>
</g>
<g>
</g>
<g>
</g>
<g>
</g>
<g>
</g>
<g>
</g>
</svg>
