<?xml version="1.0" encoding="iso-8859-1"?>
<!-- Generator: Adobe Illustrator 19.0.0, SVG Export Plug-In . SVG Version: 6.00 Build 0)  -->
<svg version="1.1" id="Layer_1" xmlns="http://www.w3.org/2000/svg" xmlns:xlink="http://www.w3.org/1999/xlink" x="0px" y="0px"
	 viewBox="0 0 511.991 511.991" style="enable-background:new 0 0 511.991 511.991;" xml:space="preserve">
<g>
	<g>
		<g>
			<path d="M261.324,175.891c-50.027,0-90.667,40.64-90.667,90.667s40.64,90.667,90.667,90.667s90.667-40.64,90.667-90.667
				C351.884,216.531,311.351,175.891,261.324,175.891z M261.324,335.891c-38.293,0-69.333-31.04-69.333-69.333
				s31.04-69.333,69.333-69.333c38.293,0,69.333,31.04,69.333,69.333C330.551,304.851,299.618,335.784,261.324,335.891z"/>
			<path d="M511.991,217.278c0-58.987-47.787-106.88-106.56-106.88c-15.893,0-31.573,3.627-45.973,10.453
				c3.947-48.213-25.387-94.827-73.28-110.4C230.284-7.682,170.124,22.824,151.991,78.824c0,0.107-0.107,0.213-0.107,0.32
				c-4.907,15.147-6.4,31.253-4.267,47.04c-45.653-19.093-98.347-4.267-127.36,35.84c-34.453,47.68-23.893,114.667,23.573,149.333
				c12.907,9.387,27.733,15.787,43.307,18.667c-32.213,37.653-34.453,92.373-5.44,132.587c16.533,23.04,41.6,38.4,69.547,42.773
				c5.547,0.853,11.2,1.387,16.853,1.387c39.04-0.107,74.88-21.547,93.44-56c25.6,42.24,77.013,61.333,124.053,45.973
				c55.893-18.24,86.613-78.613,68.373-134.613c-4.907-15.147-13.227-29.12-24.213-40.64
				C478.071,309.864,511.991,266.771,511.991,217.278z M404.791,302.824c-0.107,0-1.067-0.107-1.28-0.107
				c-5.333-0.427-9.173,2.88-10.56,7.573c-1.387,4.587,0.427,9.6,4.587,12.16c16.96,10.667,29.653,26.987,35.947,46.08
				c14.507,44.907-10.027,93.227-54.72,107.84c-44.693,14.507-92.693-9.92-107.2-54.507c-0.107-0.213-0.107-0.427-0.213-0.533
				c-0.107-0.213-0.32-1.28-0.427-1.493c-1.387-4.587-5.653-7.68-10.453-7.467c-4.8,0.107-8.96,3.413-10.133,8.107
				c-4.8,19.52-16.32,36.693-32.533,48.533c-37.973,27.627-91.2,19.307-118.827-18.667c-0.107-0.107-0.107-0.213-0.213-0.213
				c-27.627-38.187-19.2-91.84,18.773-119.467l-4.373-6.187v-0.64l5.76,6.08c4.053-2.667,5.653-7.787,4.16-12.267
				c-1.493-4.587-5.973-7.573-10.88-7.147c-47.04,3.2-87.893-32.32-91.093-79.36c-1.387-20.053,4.373-40,16.213-56.213
				c27.52-38.08,80.533-46.613,118.613-19.2c0.213,0.107,0.32,0.213,0.533,0.427c0.107,0.107,0.853,0.747,1.067,0.853
				c4.693,3.627,11.307,2.773,14.933-1.92c2.347-2.987,2.88-7.04,1.493-10.56c-7.467-18.667-8.213-39.36-2.027-58.453
				c14.4-44.8,62.4-69.44,107.2-55.04c0.107,0,0.107,0,0.213,0.107c44.693,14.613,69.333,62.933,54.72,107.947l-0.533,1.28
				c-2.027,5.547,0.853,11.627,6.4,13.653c3.627,1.28,7.573,0.64,10.453-1.813c15.36-12.907,34.667-19.947,54.72-20.053
				c47.04,0,85.227,38.4,85.227,85.547C490.231,264.531,452.044,302.824,404.791,302.824z"/>
		</g>
	</g>
</g>
<g>
</g>
<g>
</g>
<g>
</g>
<g>
</g>
<g>
</g>
<g>
</g>
<g>
</g>
<g>
</g>
<g>
</g>
<g>
</g>
<g>
</g>
<g>
</g>
<g>
</g>
<g>
</g>
<g>
</g>
</svg>
