<?xml version="1.0" encoding="iso-8859-1"?>
<!-- Generator: Adobe Illustrator 19.0.0, SVG Export Plug-In . SVG Version: 6.00 Build 0)  -->
<svg version="1.1" id="Capa_1" xmlns="http://www.w3.org/2000/svg" xmlns:xlink="http://www.w3.org/1999/xlink" x="0px" y="0px"
	 viewBox="0 0 512.001 512.001" style="enable-background:new 0 0 512.001 512.001;" xml:space="preserve">
<g>
	<g>
		<path d="M501.335,0.001c-216.448,0-406.421,301.525-414.4,314.368c-2.603,4.224-1.984,9.685,1.515,13.184l96,96
			c2.069,2.048,4.8,3.115,7.552,3.115c1.941,0,3.904-0.533,5.632-1.6c12.821-8,314.368-197.952,314.368-414.4
			C512.001,4.779,507.223,0.001,501.335,0.001z M193.452,402.347l-83.797-83.797c29.568-44.843,197.888-287.445,380.736-296.939
			C480.919,204.331,238.337,372.737,193.452,402.347z"/>
	</g>
</g>
<g>
	<g>
		<path d="M181.335,192.001c-168.939,0-181.205,157.717-181.312,159.296c-0.235,3.627,1.365,7.104,4.288,9.259
			c1.856,1.387,4.117,2.112,6.357,2.112c1.28,0,2.517-0.213,3.755-0.704l85.333-32c5.525-2.069,8.32-8.213,6.229-13.739
			c-2.069-5.504-8.277-8.256-13.739-6.229l-68.395,25.664c7.744-37.312,38.507-122.325,157.483-122.325
			c5.888,0,10.667-4.779,10.667-10.667S187.223,192.001,181.335,192.001z"/>
	</g>
</g>
<g>
	<g>
		<path d="M309.335,320.001c-5.888,0-10.667,4.779-10.667,10.667c0,118.528-84.949,149.525-122.283,157.44l25.621-68.352
			c2.091-5.525-0.704-11.669-6.229-13.739c-5.504-2.048-11.669,0.704-13.739,6.229l-32,85.333c-1.28,3.413-0.768,7.211,1.408,10.112
			c2.005,2.731,5.205,4.309,8.555,4.309c0.235,0,0.448,0,0.683-0.021c1.6-0.107,159.317-12.395,159.317-181.312
			C320.001,324.779,315.223,320.001,309.335,320.001z"/>
	</g>
</g>
<g>
	<g>
		<path d="M125.228,387.115c-0.512-0.512-1.109-0.96-1.749-1.365c-20.48-19.947-40.299-26.795-58.667-20.48
			C16.236,381.931,1.58,487.979,0.087,500.011c-0.384,3.029,1.387,6.037,3.413,8.341c2.048,2.283,5.781,3.563,8.853,3.563
			c12.053-1.515,118.08-16.149,134.72-64.747C153.559,428.289,146.199,408.086,125.228,387.115z M126.892,440.278
			c-8.363,24.448-63.829,41.643-103.573,48.491c7.019-40.363,24.107-94.976,48.405-103.317c2.069-0.704,4.224-1.045,6.443-1.045
			c9.173,0,19.776,5.952,31.595,17.813c0.533,0.533,1.131,1.003,1.749,1.408C125.207,417.771,130.369,430.081,126.892,440.278z"/>
	</g>
</g>
<g>
	<g>
		<path d="M341.335,106.667c-35.285,0-64,28.715-64,64s28.715,64,64,64c35.285,0,64-28.715,64-64S376.62,106.667,341.335,106.667z
			 M341.335,213.334c-23.531,0-42.667-19.136-42.667-42.667c0-23.531,19.136-42.667,42.667-42.667
			c23.531,0,42.667,19.136,42.667,42.667C384.001,194.198,364.865,213.334,341.335,213.334z"/>
	</g>
</g>
<g>
</g>
<g>
</g>
<g>
</g>
<g>
</g>
<g>
</g>
<g>
</g>
<g>
</g>
<g>
</g>
<g>
</g>
<g>
</g>
<g>
</g>
<g>
</g>
<g>
</g>
<g>
</g>
<g>
</g>
</svg>
