<?xml version="1.0" encoding="iso-8859-1"?>
<!-- Generator: Adobe Illustrator 18.0.0, SVG Export Plug-In . SVG Version: 6.00 Build 0)  -->
<!DOCTYPE svg PUBLIC "-//W3C//DTD SVG 1.1//EN" "http://www.w3.org/Graphics/SVG/1.1/DTD/svg11.dtd">
<svg version="1.1" id="Capa_1" xmlns="http://www.w3.org/2000/svg" xmlns:xlink="http://www.w3.org/1999/xlink" x="0px" y="0px"
	 viewBox="0 0 57.868 57.868" style="enable-background:new 0 0 57.868 57.868;" xml:space="preserve">
<g>
	<polygon points="23.71,52.161 25.124,53.575 26.417,52.282 27.71,53.575 29.124,52.161 26.417,49.454 	"/>
	<polygon points="30.71,52.161 32.124,53.575 33.417,52.282 34.71,53.575 36.124,52.161 33.417,49.454 	"/>
	<polygon points="26.417,42.282 27.71,43.575 29.124,42.161 26.417,39.454 23.71,42.161 25.124,43.575 	"/>
	<polygon points="33.417,42.282 34.71,43.575 36.124,42.161 33.417,39.454 30.71,42.161 32.124,43.575 	"/>
	<polygon points="25.124,47.161 22.417,44.454 19.71,47.161 21.124,48.575 22.417,47.282 23.71,48.575 	"/>
	<polygon points="32.124,47.161 29.417,44.454 26.71,47.161 28.124,48.575 29.417,47.282 30.71,48.575 	"/>
	<path d="M47.417,22.584c0-1.736-0.905-3.396-2.626-4.829c0.036-0.237,0.054-0.477,0.054-0.714c0-2.218-1.495-4.274-4.225-5.836
		c-0.091-1.67-0.618-6.336-3.658-9.106c-1.788-1.629-4.104-2.316-6.893-2.038c-0.343,0.034-0.644,0.242-0.796,0.551
		c-0.153,0.309-0.137,0.675,0.043,0.969c0.559,0.912,1.155,2.498,0.82,3.105c-0.186,0.336-0.839,0.393-1.212,0.396
		c-6.762,0.069-11.861,2.605-11.861,5.898c0,0.347,0.137,0.604,0.337,0.802c-2.184,1.299-4.376,3.07-4.376,5.259
		c0,0.526,0.316,0.877,0.681,1.136c-1.65,1.243-3.253,2.651-3.253,4.407c0,1.033,0.32,2.032,0.946,2.982
		c-0.051,0.157-0.073,0.322-0.041,0.488l0.905,4.78c0.051,2.082,1.698,3.769,3.79,3.99l2.467,20.538
		c0.171,1.429,1.387,2.506,2.827,2.506h15.142c1.128,0,2.11-0.665,2.568-1.638l0.069-0.069l-0.028-0.028
		c0.103-0.243,0.185-0.497,0.218-0.771l2.467-20.538c2.093-0.221,3.739-1.908,3.79-3.99l0.905-4.78
		c0.029-0.153,0.018-0.307-0.024-0.454C47.093,24.64,47.417,23.63,47.417,22.584z M15.635,19.235l0.376-0.277
		c0.337-0.25,0.483-0.684,0.365-1.086c-0.167-0.566-0.671-0.845-1.158-1.114c-0.042-0.023-0.092-0.051-0.142-0.078
		c0.219-0.778,1.216-2.118,4.802-3.984c0.45-0.233,0.653-0.767,0.474-1.241c-0.198-0.524-0.683-0.731-1.198-0.949
		c0.632-1.663,4.476-3.368,9.79-3.423c1.791-0.019,2.589-0.789,2.944-1.433c0.618-1.121,0.297-2.552-0.128-3.631
		c1.529,0.098,2.819,0.617,3.849,1.554c3.013,2.739,3.029,8.177,3.029,8.231c-0.001,0.374,0.207,0.72,0.539,0.892
		c2.365,1.23,3.667,2.774,3.667,4.346c0,0.274-0.042,0.554-0.123,0.83c-0.119,0.402,0.026,0.837,0.364,1.087
		c1.063,0.787,2.332,2.056,2.332,3.626c0,0.767-0.305,1.533-0.906,2.284H13.357c-0.602-0.751-0.906-1.518-0.906-2.284
		C12.451,21.575,14.291,20.222,15.635,19.235z M36.417,53.454l-2.414,2.414h-2.172l-2.414-2.414l-2.414,2.414h-2.172l-2.414-2.414
		l-1.855,1.855c-0.022-0.061-0.05-0.119-0.058-0.185l-0.24-1.995l0.446,0.446l1.414-1.414l-2-2l-0.193,0.193l-0.952-7.925
		l0.145,0.146l0.293-0.293l1.293,1.293l1.414-1.414l-2.707-2.707l-0.711,0.71l-0.636-5.296h3.933l-2.293,2.293l1.414,1.414
		l1.293-1.293l1.293,1.293l1.414-1.414l-2.293-2.293h6.172l-2.293,2.293l1.414,1.414l1.293-1.293l1.293,1.293l1.414-1.414
		l-2.293-2.293h6.172l-2.293,2.293l1.414,1.414l1.293-1.293l1.293,1.293l1.414-1.414l-2.293-2.293h2.93l-0.787,6.556l-0.263-0.263
		l-1,1l1.049,1.049l-0.384,3.202l-1.957-1.958l-2.707,2.707l1.414,1.414l1.293-1.293l1.293,1.293l0.46-0.46l-0.76,6.331
		L36.417,53.454z M43.59,30.548c-0.012,0.061-0.018,0.123-0.018,0.186c0,1.177-1.008,2.135-2.248,2.135h-0.436H16.943h-0.436
		c-1.24,0-2.248-0.958-2.248-2.135c0-0.063-0.006-0.125-0.018-0.186l-0.696-3.68h30.741L43.59,30.548z"/>
	<path d="M23.417,12.868h3c0.552,0,1-0.447,1-1s-0.448-1-1-1h-3c-0.552,0-1,0.447-1,1S22.865,12.868,23.417,12.868z"/>
	<path d="M33.417,12.868h2c0.552,0,1-0.447,1-1s-0.448-1-1-1h-2c-0.552,0-1,0.447-1,1S32.865,12.868,33.417,12.868z"/>
	<path d="M26.413,16.868h-0.996c-0.552,0-1,0.447-1,1s0.448,1,1,1h0.996c0.552,0,1-0.447,1-1S26.965,16.868,26.413,16.868z"/>
	<path d="M30.993,18.868h1.833c0.552,0,1-0.447,1-1s-0.448-1-1-1h-1.833c-0.552,0-1,0.447-1,1S30.441,18.868,30.993,18.868z"/>
	<path d="M37.421,18.868h0.996c0.552,0,1-0.447,1-1s-0.448-1-1-1h-0.996c-0.552,0-1,0.447-1,1S36.869,18.868,37.421,18.868z"/>
	<path d="M20.417,18.868h1c0.552,0,1-0.447,1-1s-0.448-1-1-1h-1c-0.552,0-1,0.447-1,1S19.865,18.868,20.417,18.868z"/>
</g>
<g>
</g>
<g>
</g>
<g>
</g>
<g>
</g>
<g>
</g>
<g>
</g>
<g>
</g>
<g>
</g>
<g>
</g>
<g>
</g>
<g>
</g>
<g>
</g>
<g>
</g>
<g>
</g>
<g>
</g>
</svg>
