<?xml version="1.0" encoding="iso-8859-1"?>
<!-- Generator: Adobe Illustrator 19.0.0, SVG Export Plug-In . SVG Version: 6.00 Build 0)  -->
<svg version="1.1" id="Capa_1" xmlns="http://www.w3.org/2000/svg" xmlns:xlink="http://www.w3.org/1999/xlink" x="0px" y="0px"
	 viewBox="0 0 448.697 448.697" style="enable-background:new 0 0 448.697 448.697;" xml:space="preserve">
<g>
	<g>
		<path d="M157.504,80.697c-8.839,0-16,7.161-16,16c0,8.839,7.161,16,16,16s16-7.161,16-16
			C173.504,87.858,166.344,80.685,157.504,80.697z"/>
	</g>
</g>
<g>
	<g>
		<path d="M279.06,270.88l-11.76-6.703c7.408-22.192,11.6-45.536,11.6-69.761c0-75.76-39.488-143.84-102.336-191.456
			C173.958,0.988,170.738,0,167.52,0c-3.206,0-6.41,0.98-9.005,2.944C97.379,49.232,58.675,114.912,56.531,188.112
			c-21.98,27.092-55.446,115.74-25.392,115.74c1.45,0,3.046-0.206,4.8-0.635c14.641-3.601,29.729-6.192,45.248-7.601
			c9.088,17.601,20.384,34.24,33.744,49.616c7.393,8.96,7.311,21.2,0,30.271c-21.17,26.11-49.186,71.835-24.031,71.835
			c2.222,0,4.857-0.357,7.951-1.114c22.015-5.408,44.912-8.832,69.04-8.832c24.048,0,47.024,3.408,69.04,8.832
			c1.294,0.328,2.604,0.486,3.899,0.486c4.074,0,8-1.566,10.805-4.358c11.439-11.473-20.864-54.368-30.928-66.864
			c-7.313-9.088-7.248-21.248,0.144-30.271c0.954-1.094,8.945-10.138,17.07-19.357c3.978,3.5,8.285,7.146,10.915,8.397
			c4.054,1.93,7.845,2.779,11.359,2.779c11.658,0,20.297-9.32,25.632-19.339C294.932,300.577,296.563,279.233,279.06,270.88z
			 M271.704,310.177c-2.795,5.25-7.286,10.859-11.51,10.859c-1.267,0-2.774-0.412-4.182-1.071c-0.634-0.369-2.453-1.654-7.523-6.116
			l-12.003-10.562l-10.57,11.995l-11.009,12.482l-6.434,7.314c-12.124,14.801-12.22,35.543-0.228,50.446
			c14.586,18.111,24.738,34.877,28.352,44.166c-23.842-5.58-46.362-8.297-68.707-8.297c-22.255,0-44.747,2.711-68.616,8.278
			c4.136-9.952,13.723-26.378,28.113-44.126c12.088-14.997,12.04-35.762-0.38-50.806c-12.453-14.331-23.086-29.963-31.606-46.462
			l-4.939-9.567l-10.722,0.973c-14.909,1.353-29.945,3.808-44.725,7.299c-0.866-17.107,16.808-67.672,33.939-88.788l3.41-4.202
			l0.158-5.41c1.936-66.014,35.67-127.209,95.006-172.39c61.511,46.855,95.37,110.12,95.37,178.226
			c0,21.507-3.626,43.274-10.776,64.694l-4.16,12.462l11.413,6.506l11.76,6.703l0.506,0.289l0.526,0.251
			c2.544,1.214,3.313,2.65,3.765,4.022C277.525,294.174,275.864,302.354,271.704,310.177z"/>
	</g>
</g>
<g>
	<g>
		<path d="M429.512,272.697l-0.006-141.882c0-42.876-18.991-76.75-41.314-98.853c-19.045-18.858-40.51-29.147-54.682-29.147
			l0.001,413.882c0,17.672,14.322,31.999,31.994,32c17.673-0.001,32-14.328,32-32l-0.001-144H429.512z M365.508,432.697
			c-8.823-0.001-16.001-7.178-16.001-16v-144h32.005l0.001,144C381.512,425.518,374.328,432.696,365.508,432.697z M349.506,256.696
			L349.506,256.696l-0.001-233.238c8.417,4.053,18.19,10.722,27.43,19.873c13.658,13.523,36.572,42.872,36.572,87.483l0.005,125.882
			H349.506z"/>
	</g>
</g>
<g>
</g>
<g>
</g>
<g>
</g>
<g>
</g>
<g>
</g>
<g>
</g>
<g>
</g>
<g>
</g>
<g>
</g>
<g>
</g>
<g>
</g>
<g>
</g>
<g>
</g>
<g>
</g>
<g>
</g>
</svg>
