<?xml version="1.0" encoding="iso-8859-1"?>
<!-- Generator: Adobe Illustrator 19.0.0, SVG Export Plug-In . SVG Version: 6.00 Build 0)  -->
<svg version="1.1" id="Capa_1" xmlns="http://www.w3.org/2000/svg" xmlns:xlink="http://www.w3.org/1999/xlink" x="0px" y="0px"
	 viewBox="0 0 512 512" style="enable-background:new 0 0 512 512;" xml:space="preserve">
<g>
	<g>
		<path d="M447.829,232.811c-1.003-5.781-6.613-9.835-12.352-8.64l-362.667,64c-5.803,1.024-9.664,6.571-8.64,12.352
			c0.917,5.163,5.419,8.811,10.496,8.811c0.597,0,1.237-0.043,1.856-0.171l362.667-64
			C444.992,244.139,448.853,238.592,447.829,232.811z"/>
	</g>
</g>
<g>
	<g>
		<path d="M298.667,53.333C275.136,53.333,256,72.469,256,96c0,23.531,19.136,42.667,42.667,42.667
			c23.531,0,42.667-19.136,42.667-42.667S322.197,53.333,298.667,53.333z M298.667,117.333c-11.755,0-21.333-9.557-21.333-21.333
			s9.579-21.333,21.333-21.333C310.421,74.667,320,84.224,320,96S310.421,117.333,298.667,117.333z"/>
	</g>
</g>
<g>
	<g>
		<path d="M441.152,139.392c-28.651-11.051-67.712-24.875-115.712-33.899c-5.696-1.024-11.349,2.709-12.437,8.491
			c-1.088,5.781,2.731,11.371,8.512,12.459c42.624,8.021,78.08,20.032,105.152,30.251V311.04L85.333,371.285V218.816
			l142.059-101.461c12.608,0.085,25.749,0.747,41.045,2.048c5.803,0.512,11.029-3.861,11.52-9.728
			c0.491-5.867-3.861-11.029-9.728-11.52C252.949,96.683,238.251,96,224,96c-2.219,0-4.395,0.683-6.208,1.984L68.459,204.651
			c-2.795,2.005-4.459,5.248-4.459,8.683V384c0,3.136,1.387,6.144,3.819,8.171c1.941,1.621,4.352,2.496,6.848,2.496
			c0.619,0,1.237-0.064,1.856-0.171l362.667-64C444.288,329.6,448,325.163,448,320V149.333
			C448,144.917,445.291,140.949,441.152,139.392z"/>
	</g>
</g>
<g>
	<g>
		<path d="M447.829,147.477c-1.003-5.781-6.613-9.877-12.352-8.64l-362.667,64c-5.803,1.024-9.685,6.549-8.64,12.352
			c0.917,5.163,5.419,8.811,10.496,8.811c0.597,0,1.237-0.043,1.856-0.171l362.667-64
			C444.992,158.805,448.853,153.259,447.829,147.477z"/>
	</g>
</g>
<g>
	<g>
		<path d="M441.941,260.053c-5.312-2.539-11.691-0.299-14.229,5.013c-2.539,5.312-0.299,11.691,5.035,14.229
			c37.355,17.856,57.92,39.872,57.92,62.037c0,52.032-107.477,96-234.667,96s-234.667-43.968-234.667-96
			c0-22.165,20.565-44.181,57.941-62.059c5.333-2.539,7.573-8.917,5.035-14.229c-2.56-5.333-8.939-7.573-14.229-5.013
			C24.896,281.621,0,310.507,0,341.333c0,65.792,112.448,117.333,256,117.333s256-51.541,256-117.333
			C512,310.507,487.104,281.621,441.941,260.053z"/>
	</g>
</g>
<g>
	<g>
		<path d="M369.131,322.368c-5.653-1.707-11.584,1.493-13.291,7.125c-1.707,5.653,1.493,11.584,7.125,13.291
			c13.376,4.053,18.539,7.637,20.352,9.323c-7.957,8.192-53.739,21.227-127.317,21.227c-41.792,0-81.792-4.544-106.965-12.117
			c-5.611-1.707-11.584,1.493-13.291,7.125c-1.707,5.653,1.493,11.605,7.125,13.291c27.477,8.277,68.693,13.035,113.131,13.035
			c15.275,0,149.333-1.195,149.333-42.667C405.333,333.291,378.091,325.077,369.131,322.368z"/>
	</g>
</g>
<g>
</g>
<g>
</g>
<g>
</g>
<g>
</g>
<g>
</g>
<g>
</g>
<g>
</g>
<g>
</g>
<g>
</g>
<g>
</g>
<g>
</g>
<g>
</g>
<g>
</g>
<g>
</g>
<g>
</g>
</svg>
