<?xml version="1.0" encoding="iso-8859-1"?>
<!-- Generator: Adobe Illustrator 18.0.0, SVG Export Plug-In . SVG Version: 6.00 Build 0)  -->
<!DOCTYPE svg PUBLIC "-//W3C//DTD SVG 1.1//EN" "http://www.w3.org/Graphics/SVG/1.1/DTD/svg11.dtd">
<svg version="1.1" id="Capa_1" xmlns="http://www.w3.org/2000/svg" xmlns:xlink="http://www.w3.org/1999/xlink" x="0px" y="0px"
	 viewBox="0 0 485.487 485.487" style="enable-background:new 0 0 485.487 485.487;" xml:space="preserve">
<path d="M477.737,186.962c0-14.204-4.861-27.286-12.99-37.7V60.601c11.989-3.65,20.739-14.809,20.739-27.976
	c0-16.123-13.117-29.239-29.239-29.239c-16.123,0-29.239,13.116-29.239,29.239c0,13.167,8.75,24.325,20.739,27.976v73.629
	c-9.197-5.499-19.94-8.67-31.413-8.67c-11.055,0-21.426,2.951-30.396,8.085V60.601c11.989-3.65,20.739-14.809,20.739-27.976
	c0-16.123-13.117-29.239-29.239-29.239c-16.123,0-29.239,13.116-29.239,29.239c0,13.167,8.75,24.325,20.739,27.976v87.367
	c-8.747,10.612-14.007,24.2-14.007,38.994v85.52c-9.71-21.45-23.429-41.205-40.785-58.354
	c-37.136-36.692-86.228-56.899-138.232-56.899c-41.993,0-81.472,16.353-111.166,46.046c-29.693,29.693-46.046,69.173-46.046,111.165
	c0,42.724,21.13,80.604,53.487,103.745L3.595,466.66c-3.024,2.137-4.317,5.985-3.196,9.515c1.121,3.529,4.398,5.927,8.101,5.927
	h352.046c37.181,0,66.475-10.547,87.068-31.348c30.201-30.504,30.14-71.686,30.122-73.34V186.962z M444.008,32.625
	c0-6.749,5.491-12.239,12.239-12.239c6.749,0,12.239,5.49,12.239,12.239s-5.491,12.239-12.239,12.239
	C449.499,44.865,444.008,39.374,444.008,32.625z M365.2,32.625c0-6.749,5.49-12.239,12.239-12.239
	c6.748,0,12.239,5.49,12.239,12.239s-5.491,12.239-12.239,12.239C370.69,44.865,365.2,39.374,365.2,32.625z M35.704,314.44
	c0-37.452,14.584-72.662,41.067-99.145c26.482-26.481,61.693-41.066,99.145-41.066c96.589,0,175.557,76.186,178.906,171.104
	l-113.528,34.14c5.503-12.646,8.556-26.592,8.556-41.239c0-46.671-37.969-84.64-84.64-84.64c-18.541,0-35.972,7.22-49.082,20.33
	c-13.11,13.11-20.33,30.541-20.33,49.081c0,31.558,25.673,57.231,57.229,57.231c26.183-0.001,47.484-21.303,47.484-47.484
	c0-21.885-17.804-39.689-39.687-39.689c-8.935,0-17.335,3.479-23.653,9.798c-6.318,6.318-9.798,14.719-9.797,23.652
	c0,15.692,12.767,28.46,28.458,28.46c4.694,0,8.5-3.806,8.5-8.5c0-4.694-3.806-8.5-8.5-8.5c-6.318,0-11.458-5.141-11.458-11.461
	c-0.001-4.393,1.71-8.523,4.817-11.631c3.108-3.107,7.239-4.818,11.633-4.818c12.51,0,22.687,10.178,22.687,22.689
	c0,16.809-13.676,30.483-30.485,30.484c-22.182,0-40.229-18.048-40.229-40.231c0-14,5.451-27.161,15.351-37.061
	c9.899-9.898,23.061-15.351,37.061-15.351c37.297,0,67.64,30.343,67.64,67.64c0,47.794-38.882,86.677-86.676,86.677
	C85.26,424.91,35.704,375.353,35.704,314.44z M435.399,438.929c-17.279,17.366-42.463,26.172-74.853,26.172H35.257l51.496-36.391
	c0.404-0.285,0.768-0.605,1.105-0.943c17.485,9.035,37.314,14.144,58.315,14.144c33.625,0,63.566-16.094,82.52-40.98
	c0.382-0.06,0.764-0.147,1.144-0.261l136.042-40.91c3.593-1.08,6.052-4.388,6.052-8.14V186.962
	c0-24.483,19.919-44.402,44.403-44.402c24.484,0,44.403,19.919,44.403,44.402l0.001,190.516
	C460.739,377.835,460.627,413.574,435.399,438.929z"/>
<g>
</g>
<g>
</g>
<g>
</g>
<g>
</g>
<g>
</g>
<g>
</g>
<g>
</g>
<g>
</g>
<g>
</g>
<g>
</g>
<g>
</g>
<g>
</g>
<g>
</g>
<g>
</g>
<g>
</g>
</svg>
