<?xml version="1.0" encoding="iso-8859-1"?>
<!-- Generator: Adobe Illustrator 19.0.0, SVG Export Plug-In . SVG Version: 6.00 Build 0)  -->
<svg version="1.1" id="Capa_1" xmlns="http://www.w3.org/2000/svg" xmlns:xlink="http://www.w3.org/1999/xlink" x="0px" y="0px"
	 viewBox="0 0 510.621 510.621" style="enable-background:new 0 0 510.621 510.621;" xml:space="preserve">
<g>
	<g>
		<path d="M510.379,294.429C495.147,133.683,376.939,15.475,216.214,0.264c-24.597-2.453-47.317,12.395-55.467,35.755L0.598,496.456
			c-1.344,3.861-0.363,8.149,2.539,11.051c2.048,2.027,4.757,3.115,7.552,3.115c1.173,0,2.368-0.192,3.499-0.597l460.437-160.149
			C498.006,341.747,512.683,318.941,510.379,294.429z M467.627,329.736L28.011,482.653L180.929,43.016
			c4.544-13.077,16.725-21.653,30.251-21.653c1.003,0,2.005,0.043,3.029,0.128C364.417,35.72,474.923,146.205,489.131,296.435
			C490.518,311.155,481.686,324.851,467.627,329.736z"/>
	</g>
</g>
<g>
	<g>
		<path d="M447.126,307.464c-10.56-130.24-112.704-232.811-242.901-243.883c-5.355-0.555-11.008,3.861-11.52,9.728
			c-0.491,5.888,3.861,11.029,9.728,11.541C322.198,95.027,416.15,189.384,425.878,309.213c0.427,5.568,5.099,9.792,10.603,9.792
			c0.299,0,0.597-0.021,0.875-0.043C443.222,318.493,447.595,313.331,447.126,307.464z"/>
	</g>
</g>
<g>
	<g>
		<path d="M288.022,275.955c-52.928,0-96,43.072-96,96c0,22.293,7.765,43.413,22.443,61.077c2.112,2.539,5.141,3.861,8.213,3.861
			c2.411,0,4.821-0.811,6.805-2.453c4.523-3.776,5.163-10.496,1.387-15.019c-11.456-13.803-17.515-30.208-17.515-47.467
			c0-41.173,33.493-74.667,74.667-74.667c41.173,0,74.667,33.493,74.688,74.027c-0.064,0.448-0.213,1.771-0.235,2.219
			c-0.192,5.867,4.416,11.008,10.304,11.2c6.101,0.491,10.816-4.224,11.008-10.112c0.085-0.533,0.235-2.112,0.235-2.667
			C384.022,319.027,340.95,275.955,288.022,275.955z"/>
	</g>
</g>
<g>
	<g>
		<path d="M53.355,382.621c-5.888,0-10.667,4.779-10.667,10.667c0,5.888,4.779,10.667,10.667,10.667
			c29.419,0,53.333,23.936,53.333,53.333c0,5.888,4.779,10.667,10.667,10.667c5.909,0,10.667-4.757,10.667-10.667
			C128.022,416.115,94.529,382.621,53.355,382.621z"/>
	</g>
</g>
<g>
	<g>
		<path d="M137.75,127.56c-5.739-0.725-11.157,3.499-11.819,9.365c-0.683,5.867,3.541,11.157,9.344,11.84
			c32.341,3.712,56.725,30.891,56.725,63.211c0,35.285-28.715,64-64,64c-11.669,0-23.275-3.392-33.557-9.771
			c-4.949-3.072-11.563-1.579-14.677,3.435c-3.115,4.992-1.557,11.563,3.435,14.677c13.675,8.491,29.184,12.971,44.821,12.971
			c47.061,0,85.333-38.272,85.333-85.312C213.355,168.819,180.865,132.509,137.75,127.56z"/>
	</g>
</g>
<g>
</g>
<g>
</g>
<g>
</g>
<g>
</g>
<g>
</g>
<g>
</g>
<g>
</g>
<g>
</g>
<g>
</g>
<g>
</g>
<g>
</g>
<g>
</g>
<g>
</g>
<g>
</g>
<g>
</g>
</svg>
