<?xml version="1.0" encoding="iso-8859-1"?>
<!-- Generator: Adobe Illustrator 19.0.0, SVG Export Plug-In . SVG Version: 6.00 Build 0)  -->
<svg version="1.1" id="Capa_1" xmlns="http://www.w3.org/2000/svg" xmlns:xlink="http://www.w3.org/1999/xlink" x="0px" y="0px"
	 viewBox="0 0 485.362 485.362" style="enable-background:new 0 0 485.362 485.362;" xml:space="preserve">
<g>
	<g>
		<path d="M483.369,188.497c-9.288-68.88-49.68-127.336-110.824-160.392C341.249,11.193,305.897,2.249,270.321,2.249h-55.28
			c-35.576,0-70.928,8.944-102.224,25.856C51.673,61.161,11.281,119.617,1.993,188.497c-9.288,68.88,14.176,135.952,64.376,184.016
			l71.376,68.344c29.416,28.168,67.176,42.256,104.936,42.256s75.512-14.088,104.936-42.256l71.376-68.344
			C469.193,324.449,492.657,257.377,483.369,188.497z M407.929,360.953l-71.376,68.344c-52.64,50.392-135.096,50.4-187.744,0
			l-71.376-68.344c-46.464-44.488-68.184-106.568-59.584-170.32c8.592-63.752,45.984-117.864,102.576-148.448
			c28.968-15.656,61.688-23.936,94.616-23.936h55.28c32.928,0,65.648,8.28,94.616,23.936
			c56.592,30.584,93.984,84.696,102.576,148.448C476.113,254.385,454.393,316.465,407.929,360.953z"/>
	</g>
</g>
<g>
	<g>
		<path d="M161.345,159.849c-49.12-22.024-99.096-13.632-113.784,19.112c-14.68,32.744,12.288,75.656,61.408,97.688
			c18.48,8.288,37.072,12.264,53.872,12.264c27.848,0,50.752-10.952,59.912-31.376C237.433,224.793,210.465,181.881,161.345,159.849
			z M208.153,250.993c-10.648,23.736-53.056,28.8-92.64,11.056c-39.568-17.744-64-52.8-53.352-76.536
			c6.344-14.152,23.992-21.664,45.592-21.664c14.624,0,31.064,3.448,47.04,10.616C194.369,192.201,218.801,227.249,208.153,250.993z
			"/>
	</g>
</g>
<g>
	<g>
		<path d="M439.761,184.089c-6.328-16.632-21.968-28.28-44.048-32.824c-20.76-4.264-45.072-1.728-68.448,7.168
			c-50.312,19.16-79.712,60.432-66.944,93.968c6.328,16.624,21.968,28.288,44.04,32.832c6.576,1.352,13.512,2.024,20.664,2.024
			c15.416,0,31.824-3.12,47.792-9.192c23.368-8.896,43.216-23.168,55.888-40.168C442.169,219.825,446.089,200.721,439.761,184.089z
			 M415.865,228.337c-10.872,14.592-28.184,26.944-48.752,34.776c-20.568,7.824-41.704,10.12-59.528,6.456
			c-16.52-3.4-28-11.512-32.312-22.848c-9.256-24.312,17.16-57.888,57.688-73.32c14.168-5.392,28.6-8.16,42.04-8.16
			c6.072,0,11.944,0.56,17.488,1.704c16.52,3.4,28,11.512,32.312,22.848C429.121,201.121,425.945,214.809,415.865,228.337z"/>
	</g>
</g>
<g>
	<g>
		<path d="M194.681,322.249v16c13.232,0,24,10.768,24,24h16C234.681,340.193,216.737,322.249,194.681,322.249z"/>
	</g>
</g>
<g>
	<g>
		<path d="M250.681,362.249h16c0-13.232,10.768-24,24-24v-16C268.625,322.249,250.681,340.193,250.681,362.249z"/>
	</g>
</g>
<g>
	<g>
		<rect x="234.681" y="410.249" width="16" height="16"/>
	</g>
</g>
<g>
</g>
<g>
</g>
<g>
</g>
<g>
</g>
<g>
</g>
<g>
</g>
<g>
</g>
<g>
</g>
<g>
</g>
<g>
</g>
<g>
</g>
<g>
</g>
<g>
</g>
<g>
</g>
<g>
</g>
</svg>
