<?xml version="1.0" encoding="iso-8859-1"?>
<!-- Generator: Adobe Illustrator 19.0.0, SVG Export Plug-In . SVG Version: 6.00 Build 0)  -->
<svg version="1.1" id="Capa_1" xmlns="http://www.w3.org/2000/svg" xmlns:xlink="http://www.w3.org/1999/xlink" x="0px" y="0px"
	 viewBox="0 0 432 432" style="enable-background:new 0 0 432 432;" xml:space="preserve">
<g>
	<g>
		<circle cx="264" cy="272" r="16"/>
	</g>
</g>
<g>
	<g>
		<circle cx="184" cy="304" r="16"/>
	</g>
</g>
<g>
	<g>
		<circle cx="120" cy="384" r="16"/>
	</g>
</g>
<g>
	<g>
		<circle cx="319.994" cy="264.002" r="8"/>
	</g>
</g>
<g>
	<g>
		<circle cx="271.998" cy="343.999" r="8"/>
	</g>
</g>
<g>
	<g>
		<circle cx="303.956" cy="375.999" r="8"/>
	</g>
</g>
<g>
	<g>
		<circle cx="175.996" cy="263.985" r="8"/>
	</g>
</g>
<g>
	<g>
		<circle cx="127.999" cy="343.998" r="8"/>
	</g>
</g>
<g>
	<g>
		<path d="M104,256c-13.255,0-24,10.745-24,24s10.745,24,24,24s24-10.745,24-24S117.255,256,104,256z M104,288c-4.411,0-8-3.589-8-8
			s3.589-8,8-8s8,3.589,8,8S108.411,288,104,288z"/>
	</g>
</g>
<g>
	<g>
		<path d="M216,336c-13.255,0-24,10.745-24,24s10.745,24,24,24s24-10.745,24-24S229.255,336,216,336z M216,368c-4.411,0-8-3.589-8-8
			s3.589-8,8-8s8,3.589,8,8S220.411,368,216,368z"/>
	</g>
</g>
<g>
	<g>
		<path d="M328,304c-13.255,0-24,10.745-24,24s10.745,24,24,24s24-10.745,24-24S341.255,304,328,304z M328,336c-4.411,0-8-3.589-8-8
			s3.589-8,8-8s8,3.589,8,8S332.411,336,328,336z"/>
	</g>
</g>
<g>
	<g>
		<path d="M280,107.152V64h32V48h-32V0H152v48h-32v16h32v43.152C77.472,133.536,24,204.432,24,288
			c0,57.424,25.344,108.817,65.296,144h253.408C382.656,396.817,408,345.424,408,288C408,204.432,354.528,133.536,280,107.152z
			 M168,16h96v32h-96V16z M157.34,122.235l10.66-3.774c0-23.881,0-19.616,0-54.461h96c0,34.587,0,33.898,0,54.461l10.66,3.774
			c49.075,17.373,86.818,55.199,105.127,101.765H52.213C70.522,177.434,108.265,139.608,157.34,122.235z M336.514,416H95.486
			C60.15,382.724,40,336.408,40,288c0-16.519,2.452-32.615,6.849-48h338.302c4.397,15.385,6.849,31.481,6.849,48
			C392,336.408,371.85,382.724,336.514,416z"/>
	</g>
</g>
<g>
</g>
<g>
</g>
<g>
</g>
<g>
</g>
<g>
</g>
<g>
</g>
<g>
</g>
<g>
</g>
<g>
</g>
<g>
</g>
<g>
</g>
<g>
</g>
<g>
</g>
<g>
</g>
<g>
</g>
</svg>
