<?xml version="1.0" encoding="iso-8859-1"?>
<!-- Generator: Adobe Illustrator 19.0.0, SVG Export Plug-In . SVG Version: 6.00 Build 0)  -->
<svg version="1.1" id="Capa_1" xmlns="http://www.w3.org/2000/svg" xmlns:xlink="http://www.w3.org/1999/xlink" x="0px" y="0px"
	 viewBox="0 0 480 480" style="enable-background:new 0 0 480 480;" xml:space="preserve">
<g>
	<g>
		<path d="M293.504,71.429c-0.984-3.168-3.832-5.416-7.16-5.616c-3.224-0.08-6.416,1.672-7.784,4.704
			c-2.576,5.752-8.296,9.472-14.56,9.472c-8.824,0-16-7.176-16-16c0-6.264,3.72-11.976,9.472-14.56
			c3.032-1.36,4.912-4.464,4.704-7.784c-0.2-3.32-2.44-6.168-5.616-7.16c-5.352-1.656-10.92-2.496-16.56-2.496
			c-30.88,0-56,25.128-56,56s25.12,56,56,56s56-25.128,56-56C296,82.357,295.16,76.781,293.504,71.429z M240,127.989
			c-22.056,0-40-17.944-40-40c0-20.784,15.928-37.904,36.216-39.824C233.504,52.901,232,58.333,232,63.989c0,17.648,14.352,32,32,32
			c5.656,0,11.088-1.504,15.824-4.216C277.912,112.061,260.784,127.989,240,127.989z"/>
	</g>
</g>
<g>
	<g>
		<path d="M464,175.989c0,50.76-39.616,92.328-89.536,95.672c-5.56-22.728-26.048-39.672-50.464-39.672c-19.848,0-36-16.152-36-36
			v-34.32c27.336-17.856,42.776-49.728,39.568-82.496c-4.008-41.04-36.632-74.112-77.56-78.632
			c-25.024-2.752-50.072,5.192-68.688,21.864C162.688,39.093,152,62.997,152,87.989c0,29.688,15.216,57.504,40,73.68v34.32
			c0,19.848-16.152,36-36,36c-24.656,0-45.32,17.272-50.632,40.336C46.704,275.789,0,324.469,0,383.989h16
			c0-50.24,38.808-91.504,88-95.592v183.4c0,1.872,0.656,3.688,1.856,5.128c0.152,0.176,0.424,0.472,0.592,0.64
			c1.336,1.336,3.096,2.16,4.968,2.312c16.576,1.44,24.456-10.664,30.248-19.496c5.656-8.616,8.712-12.392,14.304-12.392
			s8.656,3.776,14.304,12.392c5.728,8.736,12.864,19.608,27.68,19.608c14.824,0,21.96-10.872,27.688-19.608
			c5.648-8.616,8.712-12.392,14.304-12.392c5.584,0,8.648,3.776,14.296,12.384c5.728,8.744,12.864,19.616,27.68,19.616
			c14.824,0,21.96-10.872,27.688-19.608c5.656-8.616,8.72-12.392,14.32-12.392c5.608,0,8.672,3.776,14.336,12.392
			c5.48,8.352,12.88,19.608,27.648,19.608c0.864,0,1.76-0.04,2.68-0.12c1.872-0.168,3.736-1.096,5.064-2.424
			c1.504-1.496,2.344-3.528,2.344-5.648V287.581c58.024-4.128,104-52.536,104-111.592H464z M360,462.013
			c-2.592-1.936-5.032-5.336-8.368-10.416c-5.736-8.736-12.88-19.608-27.704-19.608c-14.824,0-21.96,10.872-27.688,19.608
			c-5.664,8.616-8.728,12.392-14.32,12.392c-5.592,0-8.648-3.776-14.304-12.392c-5.728-8.736-12.856-19.608-27.672-19.608
			c-14.816,0-21.952,10.872-27.68,19.608c-5.656,8.616-8.72,12.392-14.312,12.392c-5.592,0-8.656-3.776-14.304-12.392
			c-5.736-8.736-12.864-19.608-27.68-19.608s-21.944,10.872-27.68,19.608c-3.304,5.04-5.72,8.424-8.288,10.36V283.989
			c0-19.848,16.152-36,36-36c28.672,0,52-23.328,52-52v-38.792c0-2.848-1.52-5.496-3.992-6.92C181.8,137.413,168,113.541,168,87.989
			c0-20.448,8.744-40.008,23.992-53.656c15.456-13.832,35.44-20.176,56.256-17.88c33.456,3.696,60.12,30.736,63.4,64.288
			c2.792,28.528-10.872,55.176-35.656,69.536c-2.472,1.432-3.992,4.072-3.992,6.92v38.792c0,28.672,23.328,52,52,52
			c19.848,0,36,16.152,36,36V462.013z"/>
	</g>
</g>
<g>
	<g>
		<path d="M288,271.989h-96c-4.416,0-8,3.576-8,8c0,30.872,25.12,56,56,56s56-25.128,56-56C296,275.565,292.416,271.989,288,271.989
			z M240,319.989c-19.32,0-35.48-13.768-39.192-32H279.2C275.48,306.221,259.32,319.989,240,319.989z"/>
	</g>
</g>
<g>
</g>
<g>
</g>
<g>
</g>
<g>
</g>
<g>
</g>
<g>
</g>
<g>
</g>
<g>
</g>
<g>
</g>
<g>
</g>
<g>
</g>
<g>
</g>
<g>
</g>
<g>
</g>
<g>
</g>
</svg>
