<?xml version="1.0" encoding="iso-8859-1"?>
<!-- Generator: Adobe Illustrator 19.0.0, SVG Export Plug-In . SVG Version: 6.00 Build 0)  -->
<svg version="1.1" id="Capa_1" xmlns="http://www.w3.org/2000/svg" xmlns:xlink="http://www.w3.org/1999/xlink" x="0px" y="0px"
	 viewBox="0 0 480.004 480.004" style="enable-background:new 0 0 480.004 480.004;" xml:space="preserve">
<g>
	<g>
		<path d="M479.158,468.248l-72-144l-72-144l-88-176c-2.72-5.424-11.592-5.424-14.312,0l-88,176l-72,144l-72,144
			c-1.24,2.48-1.112,5.424,0.352,7.784c1.456,2.352,4.024,3.792,6.8,3.792h464c2.776,0,5.344-1.44,6.808-3.792
			C480.27,473.672,480.398,470.728,479.158,468.248z M239.998,25.712l75.056,150.112H164.942L239.998,25.712z M156.942,191.824
			h166.112l64,128H290.43l12.352-19.76c1.544-2.464,1.624-5.576,0.216-8.12c-1.416-2.544-4.096-4.12-7-4.12H252.31l27-60.752
			c1.104-2.48,0.872-5.336-0.6-7.608c-1.472-2.272-4-3.64-6.712-3.64h-72c-3.848,0-7.16,2.744-7.856,6.528l-18.28,97.472h-80.92
			L156.942,191.824z M221.07,337.64c-1.44-1.184-3.24-1.816-5.072-1.816c-0.52,0-1.048,0.048-1.568,0.16l-28.384,5.672
			l20.592-109.832h53.048l-27,60.752c-1.104,2.48-0.872,5.336,0.6,7.608c1.472,2.272,4,3.64,6.712,3.64h41.56l-57.56,92.104v-52.104
			C223.998,341.424,222.918,339.16,221.07,337.64z M20.942,463.824l64-128h85.92l-2.728,14.528
			c-0.496,2.608,0.344,5.296,2.232,7.168c1.896,1.864,4.592,2.68,7.192,2.152l30.44-6.088v70.24c0,3.568,2.368,6.704,5.8,7.688
			c0.72,0.208,1.464,0.312,2.2,0.312c2.704,0,5.296-1.376,6.784-3.76l57.648-92.24h114.624l64,128H20.942z"/>
	</g>
</g>
<g>
</g>
<g>
</g>
<g>
</g>
<g>
</g>
<g>
</g>
<g>
</g>
<g>
</g>
<g>
</g>
<g>
</g>
<g>
</g>
<g>
</g>
<g>
</g>
<g>
</g>
<g>
</g>
<g>
</g>
</svg>
