<?xml version="1.0" encoding="iso-8859-1"?>
<!-- Generator: Adobe Illustrator 19.0.0, SVG Export Plug-In . SVG Version: 6.00 Build 0)  -->
<svg version="1.1" id="Capa_1" xmlns="http://www.w3.org/2000/svg" xmlns:xlink="http://www.w3.org/1999/xlink" x="0px" y="0px"
	 viewBox="0 0 480 480" style="enable-background:new 0 0 480 480;" xml:space="preserve">
<g>
	<g>
		<rect x="208" y="112" width="64" height="16"/>
	</g>
</g>
<g>
	<g>
		<rect x="208" width="64" height="16"/>
	</g>
</g>
<g>
	<g>
		<rect x="128" y="464" width="96" height="16"/>
	</g>
</g>
<g>
	<g>
		<rect x="256" y="464" width="96" height="16"/>
	</g>
</g>
<g>
	<g>
		<path d="M240,232c-35.344,0-64,28.656-64,64h16c0-26.464,21.536-48,48-48c4.272,0,8.336,0.736,12.272,1.792l12.72-12.72
			C257.312,233.808,248.864,232,240,232z"/>
	</g>
</g>
<g>
	<g>
		<path d="M290.304,257.008l11.36-11.36l-11.312-11.312l-46.448,46.448c-1.28-0.32-2.528-0.784-3.904-0.784c-8.832,0-16,7.168-16,16
			c0,8.832,7.168,16,16,16c8.832,0,16-7.168,16-16c0-1.376-0.464-2.624-0.784-3.904l23.744-23.744
			C284.592,276.16,288,285.648,288,296h16C304,281.216,298.752,267.808,290.304,257.008z"/>
	</g>
</g>
<g>
	<g>
		<rect x="112" y="64" width="16" height="48"/>
	</g>
</g>
<g>
	<g>
		<rect x="352" y="64" width="16" height="48"/>
	</g>
</g>
<g>
	<g>
		<rect x="48" y="144" width="16" height="20"/>
	</g>
</g>
<g>
	<g>
		<rect x="416" y="144" width="16" height="20"/>
	</g>
</g>
<g>
	<g>
		<path d="M456,144v32h-40v8.288l19.216,15.424C431.328,233.536,402.864,260,368,260v-68h-96v-32h64V96V64V32H144v32v32v64h64v32
			h-96v68c-34.864,0-63.328-26.464-67.216-60.288L64,184.288V176H24v-32H8v40.288l20.448,16.304l0.416-0.016
			C33.232,242.816,68.624,276,112,276v76h48v35.088c-18.352,6.752-31.504,24.224-31.504,44.912v16h96v-16
			c0-21.056-13.648-38.752-32.496-45.216V352h96v34.944c-18.608,6.608-32,24.192-32,45.056v16h96v-16
			c0-20.864-13.392-38.448-32-45.056V352h48v-76c43.376,0,78.768-33.184,83.136-75.424l0.416,0.016L472,184.288V144H456z M160,144
			V48h160v96H160z M256,160v32h-32v-32H256z M208.496,432h-64c0-17.648,14.352-32,32-32C194.144,400,208.496,414.352,208.496,432z
			 M336,432h-64c0-17.648,14.352-32,32-32S336,414.352,336,432z M352,336H128V208h224V336z"/>
	</g>
</g>
<g>
	<g>
		<circle cx="200.48" cy="80" r="16"/>
	</g>
</g>
<g>
	<g>
		<circle cx="280.48" cy="80" r="16"/>
	</g>
</g>
<g>
</g>
<g>
</g>
<g>
</g>
<g>
</g>
<g>
</g>
<g>
</g>
<g>
</g>
<g>
</g>
<g>
</g>
<g>
</g>
<g>
</g>
<g>
</g>
<g>
</g>
<g>
</g>
<g>
</g>
</svg>
