<?xml version="1.0" encoding="iso-8859-1"?>
<!-- Generator: Adobe Illustrator 19.0.0, SVG Export Plug-In . SVG Version: 6.00 Build 0)  -->
<svg version="1.1" id="Capa_1" xmlns="http://www.w3.org/2000/svg" xmlns:xlink="http://www.w3.org/1999/xlink" x="0px" y="0px"
	 viewBox="0 0 479.997 479.997" style="enable-background:new 0 0 479.997 479.997;" xml:space="preserve">
<g>
	<g>
		<path d="M429.454,46.333c-0.448-2.112-1.728-3.936-3.544-5.096c-1.824-1.152-4.024-1.504-6.12-1.024
			c-2.288,0.544-56.376,13.52-75.976,34.296c-24.016,25.464-31.824,55.72-34.136,76.608c-0.032,0.296-0.048,0.584-0.048,0.88v5.168
			c-7.568,9.288-12.968,16.856-16.792,23.704c-2.192-3.56-4.504-7.04-7-10.712c-2.504-3.696-5.264-7.816-8.208-12.496v-5.456
			c1.144-22.16-0.792-77.496-42.424-117.944c-24.6-23.896-89.648-33.776-92.408-34.176c-4.152-0.6-8.016,2.04-8.96,6.088
			c-0.832,3.56-20,87.608,18.008,127.36c18.128,18.952,46.536,30.52,84.96,34.432c5.576,0.568,11.192,0.848,16.816,0.848
			c3.928,0,7.848-0.32,11.768-0.592c2.552,3.984,4.992,7.648,7.208,10.92c3.104,4.584,5.824,8.648,8.248,12.856H261.63
			c-4.424,0-8,3.576-8,8v10.232l-35.416-24.792c-2.752-1.92-6.424-1.92-9.168,0L55.862,292.669
			c-6.4,4.488-10.232,11.832-10.232,19.656v7.672c0,13.232,10.768,24,24,24h8v112c0,13.232,10.768,24,24,24h72h80h72
			c13.232,0,24-10.768,24-24v-112h8c13.232,0,24-10.768,24-24v-7.672c0-7.824-3.832-15.168-10.232-19.664c-0.008,0-0.008,0-0.008,0
			l-37.76-26.432v-66.232c0-4.424-3.576-8-8-8h-20.56c3.008-6.208,7.672-13.128,14.816-22.072
			c8.168,3.552,19.808,7.192,33.472,7.192c4.392,0,8.984-0.376,13.72-1.248c26.392-4.856,48.344-23.504,61.816-52.496
			C440.246,98.925,430.598,51.637,429.454,46.333z M255.326,152.685c-5.728,0.064-11.496-0.088-17.408-0.704
			c-34.016-3.456-59.088-13.384-74.504-29.512c-26.2-27.408-19.008-84.896-15.432-105.288c21.144,3.904,60.816,13.728,76.072,28.552
			c28.664,27.848,36.072,64.008,37.488,88.168c-16.696-22.44-36.448-42.632-58.984-60.216l-9.84,12.624
			C217.182,105.373,238.182,127.669,255.326,152.685z M245.63,463.997h-64v-96h64V463.997z M317.63,207.997v62.4
			c0,2.608,1.272,5.056,3.416,6.552l41.168,28.824c2.144,1.496,3.416,3.952,3.416,6.552v7.672c0,4.416-3.584,8-8,8h-16
			c-4.424,0-8,3.576-8,8v120c0,4.416-3.584,8-8,8h-64v-104c0-4.424-3.576-8-8-8h-80c-4.424,0-8,3.576-8,8v104h-64
			c-4.416,0-8-3.584-8-8v-120c0-4.424-3.576-8-8-8h-16c-4.416,0-8-3.584-8-8v-7.672c0-2.608,1.272-5.056,3.408-6.544L213.63,201.765
			l43.416,30.392c2.448,1.72,5.632,1.928,8.28,0.536c2.648-1.376,4.304-4.112,4.304-7.096v-17.6H317.63z M414.374,116.637
			c-6.496,13.992-21.656,38.24-50.184,43.504c-12.96,2.376-24.496,0.056-33.064-2.976c18.84-18.616,40.424-26.36,52.472-29.4
			l-3.92-15.512c-12,3.032-32.336,10.248-51.656,26.24c3.688-16.528,11.424-36.04,27.432-53
			c11.488-12.176,42.104-22.624,59.88-27.584C418.046,74.437,420.822,102.757,414.374,116.637z"/>
	</g>
</g>
<g>
</g>
<g>
</g>
<g>
</g>
<g>
</g>
<g>
</g>
<g>
</g>
<g>
</g>
<g>
</g>
<g>
</g>
<g>
</g>
<g>
</g>
<g>
</g>
<g>
</g>
<g>
</g>
<g>
</g>
</svg>
