<?xml version="1.0" encoding="iso-8859-1"?>
<!-- Generator: Adobe Illustrator 19.0.0, SVG Export Plug-In . SVG Version: 6.00 Build 0)  -->
<svg version="1.1" id="Capa_1" xmlns="http://www.w3.org/2000/svg" xmlns:xlink="http://www.w3.org/1999/xlink" x="0px" y="0px"
	 viewBox="0 0 436.688 436.688" style="enable-background:new 0 0 436.688 436.688;" xml:space="preserve">
<g>
	<g>
		<circle cx="301.756" cy="180.688" r="16"/>
	</g>
</g>
<g>
	<g>
		<path d="M378.548,79.203L389.86,67.89L321.97,0l-11.311,11.313l11.314,11.313l-22.629,22.629L288.03,33.942
			c-6.249-6.25-16.379-6.25-22.627,0c-70.386,70.386-50.288,50.289-120.276,120.278c-2.673,2.672-4.175,6.297-4.175,10.078v33.446
			c0,3.782,1.502,7.406,4.175,10.082l36.904,36.902c2.674,2.672,6.3,4.176,10.08,4.176h33.446c3.782,0,7.406-1.504,10.079-4.176
			c13.754-13.754,23.354-23.355,25.586-25.586c10.753,11.317,24.114,16.82,38.45,17.34c18.583,39.398,8.178,81.168-18.27,107.617
			c-5.218,5.218-11.023,9.461-17.035,13.262l-160.97-161.415l-11.314,11.317l107.757,107.754
			c-8.146,1.129-16.018,4.68-22.282,10.946l-11.673,11.672l-22.89-22.89l16.972-16.973l-67.882-67.879l-45.255,45.254l67.882,67.883
			l16.97-16.973l22.89,22.89l-23.742,23.742h-21.075c-8.836,0-16.837,3.582-22.627,9.371c-5.791,5.793-9.373,13.793-9.374,22.629
			l0.001,32h255.999c0.002-40.094-1.804-51.07,10.238-68.058c33.122-46.726,40.03-110.266,9.663-166.953
			c2.662-6.586,4.098-13.676,4.096-20.992c0.017-15.453-7.035-29.809-17.918-40.156c4.154-4.152,8.453-8.453,16.013-16.012
			c6.248-6.25,6.314-16.446,0.066-22.691l-11.314-11.313l-0.098-0.102l22.629-22.629L378.548,79.203z M131.679,303.43
			l-22.628-22.625c-3.125-3.125-8.187-3.125-11.313,0c-3.126,3.125-3.125,8.187,0,11.313l22.628,22.625l-5.656,5.656l-45.254-45.254
			l22.627-22.629l45.254,45.254L131.679,303.43z M224.834,232.902h-32.002l-35.881-35.883v-32l6.627-6.625l67.882,67.879
			L224.834,232.902z M188.87,337.274c4.367-4.367,10.174-6.774,16.349-6.774c6.177,0,11.983,2.406,16.35,6.774l35.413,35.414
			h-83.228h-20.297L188.87,337.274z M317.755,420.687L317.755,420.687H93.756v-16c0-8.836,7.163-16,16-16h191.998
			c8.837,0,16,7.164,16,16V420.687z M343.851,217.242c23.656,51.058,13.592,104.746-12.912,142.133
			c-4.383,6.183-7.614,12.898-9.84,19.977c-5.386-4.121-12.038-6.664-19.344-6.664h-22.102l-3.72-3.73
			c5.902-3.992,11.602-8.363,16.782-13.547c36.398-36.394,39.034-82.461,23.212-120.758
			C328.593,231.344,336.729,225.434,343.851,217.242z M341.752,180.683c0.012,22.086-17.881,40.012-40.001,40
			c-21.346,0.023-39.984-18.594-39.995-39.996c-0.012-22.09,17.881-40.012,40.001-40
			C323.884,140.699,341.764,158.61,341.752,180.683z M344.532,113.203c-1.82,1.82-15.986,15.984-17.958,17.957
			c-7.593-3.977-15.979-6.465-24.818-6.473c-30.95-0.012-56.01,25.054-56,56c0,8.902,2.293,17.379,6.194,25.098l-0.8,0.801
			l-8.376,8.375l-67.883-67.883L276.714,45.254C341.744,110.282,328.712,97.199,344.532,113.203z M333.186,79.098L310.658,56.57
			l22.626-22.629l22.53,22.527L333.186,79.098z"/>
	</g>
</g>
<g>
</g>
<g>
</g>
<g>
</g>
<g>
</g>
<g>
</g>
<g>
</g>
<g>
</g>
<g>
</g>
<g>
</g>
<g>
</g>
<g>
</g>
<g>
</g>
<g>
</g>
<g>
</g>
<g>
</g>
</svg>
