<?xml version="1.0" encoding="iso-8859-1"?>
<!-- Generator: Adobe Illustrator 19.0.0, SVG Export Plug-In . SVG Version: 6.00 Build 0)  -->
<svg version="1.1" id="Capa_1" xmlns="http://www.w3.org/2000/svg" xmlns:xlink="http://www.w3.org/1999/xlink" x="0px" y="0px"
	 viewBox="0 0 466.72 466.72" style="enable-background:new 0 0 466.72 466.72;" xml:space="preserve">
<g>
	<g>
		<path d="M296,337.434H8c-4.424,0-8,3.584-8,8c0,35,14.528,68.608,40,92.768v3.232c0,13.232,10.768,24,24,24h176
			c13.232,0,24-10.768,24-24v-3.232c25.472-24.16,40-57.76,40-92.768C304,341.018,300.424,337.434,296,337.434z M250.656,428.738
			c-1.688,1.52-2.656,3.688-2.656,5.96v6.736c0,4.408-3.584,8-8,8H64c-4.416,0-8-3.592-8-8v-6.736c0-2.272-0.968-4.44-2.656-5.96
			c-21.728-19.48-34.968-46.568-37.056-75.304h271.424C285.624,382.17,272.384,409.258,250.656,428.738z"/>
	</g>
</g>
<g>
	<g>
		<path d="M455.032,173.154L432,150.122l13.864-36.056c11.824-30.744,4.416-65.664-18.872-88.96l-7.416-7.408
			C408.336,6.45,392.8,0.458,376.88,1.378c-15.88,0.88-30.696,8.504-40.632,20.928L322,40.122l-13.72-13.72
			C300.736,18.85,290.688,14.69,280,14.69s-20.736,4.168-28.28,11.72L133.648,144.474c-6.992,6.992-8.984,17.008-5.2,26.152
			c3.784,9.144,12.28,14.816,22.168,14.824l38.088,0.008L315.72,312.466c7.544,7.552,17.592,11.72,28.28,11.72
			s20.736-4.168,28.28-11.72l82.752-82.744C470.616,214.122,470.616,188.746,455.032,173.154z M348.752,32.306
			c7.096-8.872,17.672-14.32,29.016-14.952c11.4-0.656,22.464,3.624,30.496,11.664l7.416,7.408
			c18.816,18.824,24.816,47.048,15.248,71.896l-11.312,29.416l-86.232-86.232L348.752,32.306z M443.72,218.41l-82.752,82.736
			c-9.064,9.072-24.872,9.072-33.936,0l-129.36-129.352c-1.504-1.504-3.528-2.344-5.656-2.344l-41.4-0.008
			c-4.96,0-6.904-3.784-7.392-4.944c-0.48-1.16-1.776-5.208,1.736-8.712L263.032,37.722c9.064-9.072,24.872-9.072,33.936,0
			l20.04,20.032l100,100c0.008,0.008,0.016,0.008,0.016,0.016l26.688,26.688C453.072,193.818,453.072,209.05,443.72,218.41z"/>
	</g>
</g>
<g>
	<g>
		<path d="M134.016,198.714l-12.032-10.536c-15.136,17.264-26.432,37.04-33.584,58.76c-6.24,18.96-9.064,38.728-8.392,58.768
			l15.984-0.528c-0.6-18.152,1.952-36.064,7.608-53.232C110.072,232.282,120.304,214.378,134.016,198.714z"/>
	</g>
</g>
<g>
	<g>
		<path d="M167.84,275.034c2.696-13.28,7.728-25.84,14.944-37.352l-13.56-8.496c-8.232,13.144-13.968,27.496-17.056,42.656
			c-3.456,16.944-3.456,34.168-0.008,51.184l15.688-3.176C164.824,304.946,164.824,289.866,167.84,275.034z"/>
	</g>
</g>
<g>
	<g>
		<path d="M40.92,221.714c-6.936,13.216-12.52,27.184-16.608,41.528c-5.384,18.88-8.176,38.44-8.312,58.136l16,0.112
			c0.128-18.248,2.72-36.368,7.696-53.864c3.784-13.288,8.96-26.232,15.392-38.472L40.92,221.714z"/>
	</g>
</g>
<g>
</g>
<g>
</g>
<g>
</g>
<g>
</g>
<g>
</g>
<g>
</g>
<g>
</g>
<g>
</g>
<g>
</g>
<g>
</g>
<g>
</g>
<g>
</g>
<g>
</g>
<g>
</g>
<g>
</g>
</svg>
