<?xml version="1.0" encoding="iso-8859-1"?>
<!-- Generator: Adobe Illustrator 19.0.0, SVG Export Plug-In . SVG Version: 6.00 Build 0)  -->
<svg version="1.1" id="Capa_1" xmlns="http://www.w3.org/2000/svg" xmlns:xlink="http://www.w3.org/1999/xlink" x="0px" y="0px"
	 viewBox="0 0 480 480" style="enable-background:new 0 0 480 480;" xml:space="preserve">
<g>
	<g>
		<rect x="218.908" y="136" width="16" height="16"/>
	</g>
</g>
<g>
	<g>
		<rect x="282.908" y="136" width="16" height="16"/>
	</g>
</g>
<g>
	<g>
		<path d="M274.908,184c0,8.824-7.176,16-16,16c-8.824,0-16-7.176-16-16h-16c0,17.648,14.352,32,32,32s32-14.352,32-32H274.908z"/>
	</g>
</g>
<g>
	<g>
		<path d="M460.476,287.84l-3.144-15.688l-75.112,15.024c-11.528-24.832-30.384-46.104-54.48-60.312
			c17.392-17.84,27.168-41.64,27.168-66.864c0-21.768-7.272-42.24-20.536-59.048c5-2.752,8.912-7.16,10.936-12.56l37.232,33.096
			c-2.24,4.376-3.632,9.264-3.632,14.512c0,17.648,14.352,32,32,32s32-14.352,32-32c0-16.24-12.192-29.536-27.88-31.584
			l-1.664-13.312C406.868,39.168,362.5,0,310.156,0h-83.248c-22.056,0-40,17.944-40,40v1.472c-9.288,3.312-16,12.112-16,22.528v16
			c0,9.064,5.104,16.864,12.536,20.952c-13.256,16.808-20.536,37.28-20.536,59.048c0,25.224,9.776,49.024,27.168,66.864
			c-23.544,13.88-42.096,34.488-53.696,58.576l-61.472-34.144V153.6l39.384-94.52l-14.768-6.16L74.908,112V32h-16v80L34.292,52.92
			l-14.768,6.16l39.384,94.52V480h16V269.592l55.32,30.736c-4.768,13.88-7.32,28.616-7.32,43.672c0,74.992,61.008,136,136,136
			s136-61.008,136-136c0-14.352-2.368-28.392-6.712-41.704L460.476,287.84z M408.94,120.24c0.056-0.008,0.096-0.04,0.152-0.048
			c0.6-0.08,1.192-0.192,1.816-0.192c8.824,0,16,7.176,16,16c0,8.824-7.176,16-16,16c-8.824,0-16-7.176-16-16
			c0-4.04,1.552-7.688,4.032-10.504c0.024-0.024,0.056-0.032,0.08-0.056C401.572,122.568,405.1,120.72,408.94,120.24z M226.908,16
			h83.248c44.288,0,81.832,33.144,87.328,77.088l1.648,13.224c-2.136,0.848-4.184,1.872-6.064,3.136l-46.16-41.04V64
			c0-13.232-10.768-24-24-24h-120C202.908,26.768,213.676,16,226.908,16z M186.908,64c0-4.416,3.584-8,8-8h128c4.416,0,8,3.584,8,8
			v8v8c0,4.416-3.584,8-8,8h-3.728H198.636h-3.728c-4.416,0-8-3.584-8-8V64z M258.908,464c-66.168,0-120-53.832-120-120
			c0-45.864,26.84-88.336,68.384-108.192c2.48-1.184,4.176-3.56,4.496-6.296c0.32-2.728-0.792-5.432-2.928-7.16
			c-19.04-15.304-29.952-38.032-29.952-62.352c0-21.168,8.144-40.928,22.984-56h114.032c14.84,15.072,22.984,34.832,22.984,56
			c0,24.32-10.912,47.048-29.944,62.352c-2.144,1.728-3.248,4.432-2.928,7.16c0.312,2.736,2.016,5.112,4.496,6.296
			c41.536,19.856,68.376,62.328,68.376,108.192C378.908,410.168,325.076,464,258.908,464z"/>
	</g>
</g>
<g>
	<g>
		<path d="M295.828,241.696c-1.944-1.512-4.48-2.072-6.856-1.456l-30.064,7.512l-30.064-7.504c-2.384-0.6-4.912-0.064-6.856,1.456
			c-1.944,1.52-3.08,3.832-3.08,6.296v40c0,2.464,1.136,4.792,3.08,6.304c1.944,1.512,4.456,2.056,6.856,1.456l30.064-7.512
			l30.064,7.504c0.64,0.168,1.288,0.248,1.936,0.248c1.768,0,3.504-0.584,4.92-1.696c1.944-1.512,3.08-3.84,3.08-6.304v-40
			C298.908,245.536,297.772,243.208,295.828,241.696z M282.908,277.752l-22.064-5.504c-0.632-0.168-1.288-0.248-1.936-0.248
			s-1.304,0.08-1.936,0.24l-22.064,5.512v-19.504l22.064,5.504c1.264,0.328,2.608,0.328,3.872,0l22.064-5.504V277.752z"/>
	</g>
</g>
<g>
	<g>
		<rect x="250.908" y="320" width="16" height="16"/>
	</g>
</g>
<g>
	<g>
		<rect x="250.908" y="352" width="16" height="16"/>
	</g>
</g>
<g>
	<g>
		<rect x="250.908" y="384" width="16" height="16"/>
	</g>
</g>
<g>
</g>
<g>
</g>
<g>
</g>
<g>
</g>
<g>
</g>
<g>
</g>
<g>
</g>
<g>
</g>
<g>
</g>
<g>
</g>
<g>
</g>
<g>
</g>
<g>
</g>
<g>
</g>
<g>
</g>
</svg>
