<?xml version="1.0" encoding="iso-8859-1"?>
<!-- Generator: Adobe Illustrator 19.0.0, SVG Export Plug-In . SVG Version: 6.00 Build 0)  -->
<svg version="1.1" id="Capa_1" xmlns="http://www.w3.org/2000/svg" xmlns:xlink="http://www.w3.org/1999/xlink" x="0px" y="0px"
	 viewBox="0 0 472.195 472.195" style="enable-background:new 0 0 472.195 472.195;" xml:space="preserve">
<g>
	<g>
		<path d="M468.098,168c0-30.875-25.125-56-56-56c-2.68,0-5.246,0.425-7.828,0.791C369.645,35.866,290.336,0,220.098,0
			C169.926,0,101.574,25.592,71.379,97.018c-16.063,4.154-35.282,7.19-35.282,28.091v62.61c0,8.972,4.789,17.334,13.691,21.588
			C30.258,238.114,4.098,268.85,4.098,312c0,72.203,76.094,128.961,214.25,159.805l1.75,0.39l1.75-0.39
			c138.156-30.844,214.25-87.602,214.25-159.805c0-36.686-19.062-64.786-36.656-89.57c4.082,0.951,8.289,1.57,12.656,1.57
			C442.973,224,468.098,198.875,468.098,168z M220.098,16c64.031,0,136.262,32.203,168.633,101.274
			c-1.969,0.909-3.844,1.962-5.68,3.085C316.378,64.837,163.507,77.074,91.066,92.406C120.27,36.336,177.488,16,220.098,16z
			 M52.098,125.11c0-3.523,2.187-6.578,5.438-7.602c78.039-24.419,248.586-38.126,313.078,13.226
			c-8.926,9.924-14.516,22.905-14.516,37.266c0,8.978,2.324,17.35,6.094,24.88C327.16,184.448,277.91,176,220.098,176
			c-73.672,0-126.438,10.539-157.718,19.383c-5.317,1.483-10.282-2.419-10.282-7.665V125.11z M210.004,312.218
			c-10.879,35.366-48.07,58.181-94.39,42.805C141.266,342.766,146.621,314.888,210.004,312.218z M204.098,280c0-8.82,7.172-16,16-16
			s16,7.18,16,16s-7.172,16-16,16S204.098,288.82,204.098,280z M220.098,329.274c3.465,7.034,7.789,13.448,12.946,19.146
			c-4.344,2.303-8.618,3.579-12.946,3.579c-4.953,0-9.32-1.422-13.16-3.362C212.183,342.884,216.59,336.4,220.098,329.274z
			 M230.191,312.218c63.363,2.669,68.726,30.549,94.375,42.805C278.5,370.34,241.133,347.779,230.191,312.218z M319.805,332.548
			c-16-13.354-31.242-29.718-73.082-34.85c3.012-4.517,4.782-9.869,5.164-15.6c6.356,4.662,14.126,7.502,22.61,7.502h19.199
			c21.207,0,38.402-17.194,38.402-38.402V240c0-4.419-3.582-8-8-8h-24c0-8.837-7.164-16-16-16s-16,7.163-16,16h-24
			c-4.418,0-8,3.581-8,8v11.199c0,0.454,0.117,0.875,0.133,1.325c-4.754-2.803-10.226-4.524-16.133-4.524
			c-5.906,0-11.379,1.721-16.133,4.525c0.016-0.45,0.133-0.871,0.133-1.326V240c0-4.419-3.582-8-8-8h-24c0-8.837-7.164-16-16-16
			s-16,7.163-16,16h-24c-4.418,0-8,3.581-8,8v11.199c0,21.208,17.191,38.4,38.398,38.4h19.199c8.488,0,16.258-2.841,22.614-7.502
			c0.383,5.73,2.149,11.082,5.164,15.6c-41.782,5.121-57.094,21.461-73.094,34.846c-21.367-7.66-36.282-27.73-36.282-52.005
			c0-12.64,6.402-27.93,12.886-40.539c2.75-5.346,2.18-11.626-1.222-16.583c-0.125-0.185-0.25-0.37-0.375-0.558
			c-5.355-8.058-0.344-19.026,9.164-20.818C133.934,196.507,172.386,192,220.098,192c44.926,0,84.582,5.247,116.129,11.537
			c4.278,0.853,7.84,3.802,9.473,7.848c1.633,4.046,1.125,8.645-1.363,12.235c-3.32,4.782-4.008,10.834-1.328,16.002
			c6.574,12.683,13.09,28.53,13.09,40.918C356.098,304.818,341.176,324.89,319.805,332.548z M252.098,251.199V248h64v3.199
			c0,12.351-10.05,22.4-22.402,22.4h-19.199C262.145,273.6,252.098,263.55,252.098,251.199z M188.098,248v3.199
			c0,12.351-10.05,22.4-22.402,22.4h-19.199c-12.351,0-22.398-10.049-22.398-22.4V248H188.098z M420.098,312
			c0,63.656-71,114.687-200,143.805c-129-29.118-200-80.149-200-143.805c0-40.566,27.386-69.544,47.242-99.947
			c0.734-1.13,1.867-1.946,3.195-2.29c0.832-0.217,1.687,0.26,1.942,1.082c3.168,10.178,7.238,17.566,10.152,21.874
			c-4.781,9.25-14.531,30.304-14.531,47.82c0,26.368,14.446,49.318,35.805,61.673c-3.469,1.064-7.226,1.804-11.805,1.804
			c-3.406,0-6.453,2.164-7.562,5.39c-1.11,3.226-0.062,6.805,2.625,8.906c16,12.523,65.586,31.738,107.164,1.535
			c6.738,4.456,15.383,8.152,25.774,8.152c8.672,0,17.035-2.947,25.317-8.474c41.278,30.403,91.282,11.55,107.606-1.205
			c2.687-2.102,3.75-5.68,2.641-8.906c-1.11-3.234-4.142-5.398-7.563-5.398c-4.578,0-8.34-0.738-11.809-1.801
			c21.363-12.355,35.809-35.306,35.809-61.676c0-17.516-9.75-38.57-14.531-47.82c2.789-4.128,6.629-11.114,9.742-20.642
			c0.25-0.762,1.047-1.203,1.824-1.006c0.359,0.091,0.718,0.182,1.074,0.273c1.683,0.426,3.145,1.46,4.106,2.902
			C394.191,244.082,420.098,272.504,420.098,312z M372.098,168c0-22.054,17.938-40,40-40c22.062,0,40,17.946,40,40s-17.938,40-40,40
			C390.035,208,372.098,190.054,372.098,168z"/>
	</g>
</g>
<g>
	<g>
		<path d="M258.802,385.304c-2.782-3.937-8.235-4.835-12.157-2.086c-15.438,10.93-39.5,10.32-53.406,0.078
			c-3.89-2.836-9.344-2.023-12.187,1.859c-2.859,3.875-2.031,9.336,1.844,12.187c10.125,7.438,22.984,11.375,37.203,11.375
			c13.718,0,26.047-3.789,36.61-11.266C260.646,394.671,261.567,389.234,258.802,385.304z"/>
	</g>
</g>
<g>
</g>
<g>
</g>
<g>
</g>
<g>
</g>
<g>
</g>
<g>
</g>
<g>
</g>
<g>
</g>
<g>
</g>
<g>
</g>
<g>
</g>
<g>
</g>
<g>
</g>
<g>
</g>
<g>
</g>
</svg>
