<?xml version="1.0" encoding="iso-8859-1"?>
<!-- Generator: Adobe Illustrator 19.0.0, SVG Export Plug-In . SVG Version: 6.00 Build 0)  -->
<svg version="1.1" id="Capa_1" xmlns="http://www.w3.org/2000/svg" xmlns:xlink="http://www.w3.org/1999/xlink" x="0px" y="0px"
	 viewBox="0 0 479.339 479.339" style="enable-background:new 0 0 479.339 479.339;" xml:space="preserve">
<g>
	<g>
		<path d="M303.669,46.507l-48.894-0.011L239.669,0l-15.114,46.496l-48.886,0.01l39.55,28.735l-15.101,46.497l39.55-28.735
			l39.55,28.735l-15.102-46.496L303.669,46.507z M254.701,87.707c-10.278-7.468-7.446-5.41-15.031-10.92
			c-7.57,5.499-4.734,3.438-15.031,10.92c3.926-12.08,2.844-8.751,5.738-17.667c-7.566-5.499-4.738-3.443-15.031-10.924
			c4.308-0.001,8.921-0.002,18.582-0.004c2.902-8.933,1.824-5.61,5.738-17.665c3.926,12.079,2.844,8.751,5.742,17.665
			c9.66,0.002,14.258,0.003,18.586,0.004c-10.293,7.481-7.465,5.425-15.031,10.924C251.857,78.956,250.776,75.627,254.701,87.707z"
			/>
	</g>
</g>
<g>
	<g>
		<path d="M395.298,364.34l-70.121-84.32c9.379-1.41,18.477-3.016,27.16-4.858c13.363-2.738,20.621-18.819,10.926-30.466
			L255.025,118.038c-3.942-4.734-9.649-7.101-15.355-7.101c-5.706,0-11.414,2.366-15.355,7.101L116.076,244.696
			c-9.695,11.646-2.438,27.729,10.926,30.466c8.683,1.842,17.782,3.447,27.16,4.858l-70.121,84.32
			c-8.996,10.818-3.402,26.018,8.402,29.714c31.766,10.082,71.492,16.873,115.226,19.154v2.992c-64.078,3.239-112,15.919-112,31.14
			c0,17.673,64.473,32,144,32s144-14.327,144-32c0-15.221-47.922-27.9-112-31.14v-2.992c43.734-2.282,83.461-9.072,115.226-19.154
			C398.701,390.358,404.295,375.158,395.298,364.34z M130.213,259.487c-1.355-0.278-2.168-1.323-2.453-2.134
			c-0.25-0.711-0.242-1.394,0.481-2.262l108.37-126.816c0.969-1.164,2.332-1.338,3.058-1.338s2.09,0.174,3.191,1.495l108.106,126.5
			c0.855,1.026,0.863,1.709,0.614,2.42c-0.285,0.811-1.098,1.858-2.562,2.158c-32.984,6.995-70.797,10.692-109.348,10.692
			C201.118,270.202,163.306,266.505,130.213,259.487z M361.533,447.34c-16.711,7.045-58.668,16-121.863,16
			s-105.152-8.955-121.863-16c13.68-5.769,44.531-12.738,89.863-15.102v14.699c0,4.418,14.328,8,32,8s32-3.582,32-8v-14.699
			C317.001,434.602,347.853,441.571,361.533,447.34z M223.669,437.667v-23.815c5.301,0.137,10.606,0.267,16,0.267
			s10.699-0.131,16-0.267v23.815c-3.73,0.677-9.145,1.27-16,1.27C232.814,438.938,227.4,438.344,223.669,437.667z M383.635,377.064
			c-0.188,0.634-0.696,1.462-1.578,1.74c-39.246,12.455-89.813,19.315-142.386,19.315s-103.141-6.86-142.446-19.335
			c-0.824-0.258-1.332-1.087-1.519-1.72c-0.262-0.881-0.062-1.65,0.637-2.494l76.656-92.18c21.106,2.397,43.394,3.811,66.672,3.811
			s45.566-1.415,66.672-3.811l76.656,92.18C383.697,375.414,383.897,376.183,383.635,377.064z"/>
	</g>
</g>
<g>
	<g>
		<circle cx="191.675" cy="238.536" r="12"/>
	</g>
</g>
<g>
	<g>
		<circle cx="159.675" cy="350.536" r="12"/>
	</g>
</g>
<g>
	<g>
		<circle cx="239.675" cy="366.536" r="12"/>
	</g>
</g>
<g>
	<g>
		<circle cx="303.675" cy="334.536" r="12"/>
	</g>
</g>
<g>
	<g>
		<circle cx="247.675" cy="182.536" r="12"/>
	</g>
</g>
<g>
</g>
<g>
</g>
<g>
</g>
<g>
</g>
<g>
</g>
<g>
</g>
<g>
</g>
<g>
</g>
<g>
</g>
<g>
</g>
<g>
</g>
<g>
</g>
<g>
</g>
<g>
</g>
<g>
</g>
</svg>
